StackSansHeadline.glyphspackage
{
color = 6;
glyphname = exclam;
kernLeft = KO_exclam;
kernRight = KO_exclam;
layers = (
{
layerId = "7B07347B-11DE-4909-BA20-F43005BA30D7";
shapes = (
{
closed = 1;
nodes = (
(53,220,l),
(196,220,l),
(196,700,l),
(53,700,l)
);
},
{
closed = 1;
nodes = (
(48,0,l),
(201,0,l),
(201,153,l),
(48,153,l)
);
}
);
width = 249;
},
{
layerId = "A0F3C0B3-6058-4691-93DD-C4034CAB0732";
shapes = (
{
closed = 1;
nodes = (
(59,190,l),
(137,190,l),
(137,700,l),
(59,700,l)
);
},
{
closed = 1;
nodes = (
(53,0,l),
(142,0,l),
(142,93,l),
(53,93,l)
);
}
);
width = 195;
}
);
metricLeft = "=l";
metricRight = "=l";
unicode = 33;
}
{
color = 6;
glyphname = percent;
kernLeft = KO_percent;
kernRight = KO_percent;
layers = (
{
layerId = "A0F3C0B3-6058-4691-93DD-C4034CAB0732";
shapes = (
{
closed = 1;
nodes = (
(224,0,l),
(308,0,l),
(698,700,l),
(614,700,l)
);
},
{
closed = 1;
nodes = (
(334,277,o),
(390,375,o),
(390,497,cs),
(390,618,o),
(334,716,o),
(213,716,cs),
(91,716,o),
(35,618,o),
(35,497,cs),
(35,375,o),
(91,277,o),
(213,277,cs)
);
},
{
closed = 1;
nodes = (
(148,342,o),
(110,409,o),
(110,497,cs),
(110,584,o),
(148,651,o),
(213,651,cs),
(277,651,o),
(315,584,o),
(315,497,cs),
(315,409,o),
(277,342,o),
(213,342,cs)
);
},
{
closed = 1;
nodes = (
(829,-16,o),
(885,82,o),
(885,204,cs),
(885,325,o),
(829,423,o),
(708,423,cs),
(586,423,o),
(530,325,o),
(530,204,cs),
(530,82,o),
(586,-16,o),
(708,-16,cs)
);
},
{
closed = 1;
nodes = (
(643,49,o),
(605,116,o),
(605,204,cs),
(605,291,o),
(643,358,o),
(708,358,cs),
(772,358,o),
(810,291,o),
(810,204,cs),
(810,116,o),
(772,49,o),
(708,49,cs)
);
}
);
width = 920;
},
{
layerId = "7B07347B-11DE-4909-BA20-F43005BA30D7";
shapes = (
{
closed = 1;
nodes = (
(211,0,l),
(363,0,l),
(753,700,l),
(601,700,l)
);
},
{
closed = 1;
nodes = (
(334,277,o),
(390,375,o),
(390,497,cs),
(390,618,o),
(334,716,o),
(213,716,cs),
(91,716,o),
(35,618,o),
(35,497,cs),
(35,375,o),
(91,277,o),
(213,277,cs)
);
},
{
closed = 1;
nodes = (
(177,402,o),
(159,439,o),
(159,497,cs),
(159,554,o),
(177,591,o),
(213,591,cs),
(248,591,o),
(266,554,o),
(266,497,cs),
(266,439,o),
(248,402,o),
(213,402,cs)
);
},
{
closed = 1;
nodes = (
(869,-16,o),
(925,82,o),
(925,204,cs),
(925,325,o),
(869,423,o),
(748,423,cs),
(626,423,o),
(570,325,o),
(570,204,cs),
(570,82,o),
(626,-16,o),
(748,-16,cs)
);
},
{
closed = 1;
nodes = (
(712,109,o),
(694,146,o),
(694,204,cs),
(694,261,o),
(712,298,o),
(748,298,cs),
(783,298,o),
(801,261,o),
(801,204,cs),
(801,146,o),
(783,109,o),
(748,109,cs)
);
}
);
width = 960;
}
);
unicode = 37;
}
{
color = 6;
glyphname = parenleft;
kernLeft = KO_parenleft;
kernRight = KO_parenleft;
layers = (
{
layerId = "A0F3C0B3-6058-4691-93DD-C4034CAB0732";
shapes = (
{
closed = 1;
nodes = (
(87,588,o),
(33,460,o),
(33,272,cs),
(33,84,o),
(87,-44,o),
(157,-172,c),
(217,-172,l),
(144,-24,o),
(105,104,o),
(105,272,c),
(105,440,o),
(144,568,o),
(217,716,c),
(157,716,l)
);
}
);
width = 242;
},
{
layerId = "7B07347B-11DE-4909-BA20-F43005BA30D7";
shapes = (
{
closed = 1;
nodes = (
(82,588,o),
(28,460,o),
(28,272,cs),
(28,84,o),
(82,-44,o),
(152,-172,c),
(244,-172,l),
(184,-24,o),
(154,104,o),
(154,272,c),
(154,440,o),
(184,568,o),
(244,716,c),
(152,716,l)
);
}
);
width = 264;
}
);
unicode = 40;
}
{
color = 6;
glyphname = plus;
kernLeft = KO_plus;
kernRight = KO_plus;
layers = (
{
layerId = "A0F3C0B3-6058-4691-93DD-C4034CAB0732";
shapes = (
{
closed = 1;
nodes = (
(46,337,l),
(536,337,l),
(536,403,l),
(46,403,l)
);
},
{
closed = 1;
nodes = (
(258,615,l),
(258,125,l),
(323,125,l),
(323,615,l)
);
}
);
width = 581;
},
{
layerId = "7B07347B-11DE-4909-BA20-F43005BA30D7";
shapes = (
{
closed = 1;
nodes = (
(41,309,l),
(531,309,l),
(531,431,l),
(41,431,l)
);
},
{
closed = 1;
nodes = (
(225,615,l),
(225,125,l),
(347,125,l),
(347,615,l)
);
}
);
width = 571;
},
{
associatedMasterId = "A0F3C0B3-6058-4691-93DD-C4034CAB0732";
layerId = "9812C116-1657-4CF0-B776-5CB4C2264760";
name = "1 Sep 25 at 14:36";
shapes = (
{
closed = 1;
nodes = (
(46,339,l),
(536,339,l),
(536,401,l),
(45,401,l)
);
},
{
closed = 1;
nodes = (
(260,615,l),
(260,125,l),
(322,125,l),
(322,616,l)
);
}
);
width = 581;
}
);
metricRight = "=hyphen";
unicode = 43;
}
{
color = 6;
glyphname = comma;
kernLeft = KO_comma;
kernRight = KO_period;
layers = (
{
layerId = "7B07347B-11DE-4909-BA20-F43005BA30D7";
shapes = (
{
closed = 1;
nodes = (
(30,0,l),
(108,0,l),
(108,-30,o),
(98,-48,o),
(65,-48,c),
(65,-114,l),
(137,-114,o),
(183,-76,o),
(183,0,cs),
(183,153,l),
(30,153,l)
);
}
);
width = 213;
},
{
layerId = "A0F3C0B3-6058-4691-93DD-C4034CAB0732";
shapes = (
{
closed = 1;
nodes = (
(35,0,l),
(84,0,l),
(84,-19,o),
(77,-30,o),
(57,-30,c),
(57,-71,l),
(101,-71,o),
(130,-47,o),
(130,0,cs),
(130,93,l),
(35,93,l)
);
}
);
width = 165;
}
);
unicode = 44;
userData = {
KernOnSpecialSpacing = {
L = period;
R = period;
};
};
}
{
color = 6;
glyphname = slash;
kernLeft = KO_slash;
kernRight = KO_slash;
layers = (
{
layerId = "A0F3C0B3-6058-4691-93DD-C4034CAB0732";
shapes = (
{
closed = 1;
nodes = (
(25,0,l),
(102,0,l),
(302,700,l),
(225,700,l)
);
}
);
width = 327;
},
{
layerId = "7B07347B-11DE-4909-BA20-F43005BA30D7";
shapes = (
{
closed = 1;
nodes = (
(20,0,l),
(162,0,l),
(362,700,l),
(220,700,l)
);
}
);
width = 382;
}
);
unicode = 47;
}
{
color = 6;
glyphname = one;
layers = (
{
layerId = "7B07347B-11DE-4909-BA20-F43005BA30D7";
shapes = (
{
closed = 1;
nodes = (
(188,0,l),
(333,0,l),
(333,700,l),
(188,700,l)
);
},
{
closed = 1;
nodes = (
(20,574,l),
(215,574,l),
(215,700,l),
(20,700,l)
);
},
{
closed = 1;
nodes = (
(20,0,l),
(215,0,l),
(215,126,l),
(20,126,l)
);
},
{
closed = 1;
nodes = (
(306,0,l),
(501,0,l),
(501,126,l),
(306,126,l)
);
}
);
width = 521;
},
{
layerId = "A0F3C0B3-6058-4691-93DD-C4034CAB0732";
shapes = (
{
closed = 1;
nodes = (
(188,0,l),
(263,0,l),
(263,700,l),
(188,700,l)
);
},
{
closed = 1;
nodes = (
(20,634,l),
(215,634,l),
(215,700,l),
(20,700,l)
);
},
{
closed = 1;
nodes = (
(20,0,l),
(215,0,l),
(215,66,l),
(20,66,l)
);
},
{
closed = 1;
nodes = (
(236,0,l),
(431,0,l),
(431,66,l),
(236,66,l)
);
}
);
width = 451;
}
);
unicode = 49;
userData = {
KernOnSpecialSpacing = {
L = NoKerning;
R = NoKerning;
};
};
}
{
color = 6;
glyphname = four;
layers = (
{
layerId = "7B07347B-11DE-4909-BA20-F43005BA30D7";
shapes = (
{
closed = 1;
nodes = (
(332,0,l),
(475,0,l),
(475,700,l),
(332,700,l)
);
},
{
closed = 1;
nodes = (
(30,156,l),
(571,156,l),
(571,282,l),
(30,282,l)
);
},
{
closed = 1;
nodes = (
(30,282,l),
(30,156,l),
(98,156,l),
(453,700,l),
(303,700,l)
);
}
);
width = 581;
},
{
layerId = "A0F3C0B3-6058-4691-93DD-C4034CAB0732";
shapes = (
{
closed = 1;
nodes = (
(357,0,l),
(430,0,l),
(430,700,l),
(357,700,l)
);
},
{
closed = 1;
nodes = (
(65,176,l),
(556,176,l),
(556,242,l),
(65,242,l)
);
},
{
closed = 1;
nodes = (
(20,230,l),
(20,176,l),
(67,176,l),
(402,700,l),
(327,700,l)
);
}
);
width = 586;
}
);
unicode = 52;
userData = {
KernOnSpecialSpacing = {
L = NoKerning;
R = NoKerning;
};
};
}
{
color = 6;
glyphname = five;
layers = (
{
layerId = "7B07347B-11DE-4909-BA20-F43005BA30D7";
shapes = (
{
closed = 1;
nodes = (
(182,470,o),
(106,344,o),
(91,287,c),
(177,287,l),
(203,317,o),
(255,340,o),
(314,340,cs),
(391,340,o),
(426,295,o),
(426,230,cs),
(426,172,o),
(391,116,o),
(313,116,cs),
(234,116,o),
(188,156,o),
(182,222,c),
(30,222,l),
(30,81,o),
(158,-16,o),
(308,-16,cs),
(478,-16,o),
(577,90,o),
(577,227,cs),
(577,371,o),
(491,470,o),
(314,470,c)
);
},
{
closed = 1;
nodes = (
(172,287,l),
(250,700,l),
(105,700,l),
(30,287,l)
);
},
{
closed = 1;
nodes = (
(143,574,l),
(520,574,l),
(520,700,l),
(143,700,l)
);
}
);
width = 597;
},
{
layerId = "A0F3C0B3-6058-4691-93DD-C4034CAB0732";
shapes = (
{
closed = 1;
nodes = (
(162,470,o),
(91,344,o),
(76,287,c),
(122,287,l),
(146,357,o),
(210,400,o),
(299,400,cs),
(416,400,o),
(484,335,o),
(484,230,cs),
(484,132,o),
(421,56,o),
(303,56,cs),
(174,56,o),
(114,136,o),
(108,222,c),
(35,222,l),
(35,81,o),
(156,-16,o),
(298,-16,cs),
(468,-16,o),
(562,90,o),
(562,227,cs),
(562,364,o),
(475,470,o),
(312,470,cs)
);
},
{
closed = 1;
nodes = (
(116,287,l),
(194,700,l),
(120,700,l),
(45,287,l)
);
},
{
closed = 1;
nodes = (
(128,634,l),
(495,634,l),
(495,700,l),
(128,700,l)
);
}
);
width = 587;
}
);
unicode = 53;
userData = {
KernOnSpecialSpacing = {
L = NoKerning;
R = NoKerning;
};
};
}
{
color = 6;
glyphname = six;
layers = (
{
layerId = "7B07347B-11DE-4909-BA20-F43005BA30D7";
shapes = (
{
closed = 1;
nodes = (
(558,502,l),
(534,630,o),
(451,716,o),
(310,716,cs),
(127,716,o),
(28,577,o),
(28,331,cs),
(28,67,o),
(156,-16,o),
(306,-16,cs),
(476,-16,o),
(575,90,o),
(575,227,cs),
(575,364,o),
(476,470,o),
(312,470,cs),
(228,470,o),
(161,434,o),
(130,380,c),
(168,373,l),
(172,528,o),
(241,584,o),
(305,584,cs),
(374,584,o),
(394,549,o),
(403,502,c)
);
},
{
closed = 1;
nodes = (
(190,300,o),
(236,340,o),
(307,340,cs),
(378,340,o),
(424,300,o),
(424,230,cs),
(424,164,o),
(378,116,o),
(306,116,cs),
(236,116,o),
(190,164,o),
(190,232,cs)
);
}
);
width = 603;
},
{
layerId = "A0F3C0B3-6058-4691-93DD-C4034CAB0732";
shapes = (
{
closed = 1;
nodes = (
(563,502,l),
(539,630,o),
(456,716,o),
(315,716,cs),
(132,716,o),
(33,577,o),
(33,331,cs),
(33,67,o),
(161,-16,o),
(311,-16,cs),
(481,-16,o),
(580,90,o),
(580,227,cs),
(580,364,o),
(481,470,o),
(317,470,cs),
(197,470,o),
(107,390,o),
(83,320,c),
(109,322,l),
(109,549,o),
(187,644,o),
(310,644,cs),
(432,644,o),
(469,549,o),
(478,502,c)
);
},
{
closed = 1;
nodes = (
(125,328,o),
(189,400,o),
(313,400,cs),
(437,400,o),
(502,328,o),
(502,230,cs),
(502,132,o),
(437,56,o),
(312,56,cs),
(189,56,o),
(125,132,o),
(125,232,cs)
);
}
);
width = 613;
}
);
metricRight = "=O";
unicode = 54;
userData = {
KernOnSpecialSpacing = {
L = NoKerning;
R = NoKerning;
};
};
}
{
color = 6;
glyphname = eight;
layers = (
{
layerId = "7B07347B-11DE-4909-BA20-F43005BA30D7";
shapes = (
{
closed = 1;
nodes = (
(136,716,o),
(33,622,o),
(33,510,cs),
(33,441,o),
(65,380,o),
(141,352,c),
(60,324,o),
(28,260,o),
(28,190,cs),
(28,78,o),
(126,-16,o),
(295,-16,cs),
(464,-16,o),
(562,78,o),
(562,190,cs),
(562,260,o),
(530,324,o),
(449,352,c),
(525,380,o),
(557,441,o),
(557,510,cs),
(557,622,o),
(454,716,o),
(295,716,cs)
);
},
{
closed = 1;
nodes = (
(179,258,o),
(210,297,o),
(295,297,cs),
(380,297,o),
(411,258,o),
(411,205,cs),
(411,162,o),
(384,116,o),
(295,116,cs),
(206,116,o),
(179,163,o),
(179,205,cs)
);
},
{
closed = 1;
nodes = (
(184,549,o),
(225,584,o),
(295,584,c),
(365,584,o),
(406,549,o),
(406,505,cs),
(406,452,o),
(372,413,o),
(295,413,cs),
(217,413,o),
(184,452,o),
(184,505,cs)
);
}
);
width = 590;
},
{
layerId = "A0F3C0B3-6058-4691-93DD-C4034CAB0732";
shapes = (
{
closed = 1;
nodes = (
(141,716,o),
(38,622,o),
(38,510,cs),
(38,441,o),
(70,380,o),
(146,352,c),
(65,324,o),
(33,260,o),
(33,190,cs),
(33,78,o),
(131,-16,o),
(300,-16,cs),
(470,-16,o),
(567,78,o),
(567,190,cs),
(567,260,o),
(535,324,o),
(454,352,c),
(530,380,o),
(562,441,o),
(562,510,cs),
(562,622,o),
(459,716,o),
(300,716,cs)
);
},
{
closed = 1;
nodes = (
(111,278,o),
(175,323,o),
(300,323,cs),
(425,323,o),
(479,278,o),
(479,195,cs),
(479,110,o),
(420,56,o),
(300,56,cs),
(180,56,o),
(111,110,o),
(111,195,cs)
);
},
{
closed = 1;
nodes = (
(116,589,o),
(190,644,o),
(300,644,c),
(410,644,o),
(484,589,o),
(484,515,cs),
(484,432,o),
(417,387,o),
(300,387,cs),
(182,387,o),
(116,432,o),
(116,515,cs)
);
}
);
width = 600;
}
);
metricRight = "=O";
unicode = 56;
userData = {
KernOnSpecialSpacing = {
L = NoKerning;
R = NoKerning;
};
};
}
{
color = 6;
glyphname = colon;
kernLeft = KO_colon;
kernRight = KO_colon;
layers = (
{
layerId = "A0F3C0B3-6058-4691-93DD-C4034CAB0732";
shapes = (
{
closed = 1;
nodes = (
(40,0,l),
(129,0,l),
(129,93,l),
(40,93,l)
);
},
{
closed = 1;
nodes = (
(40,467,l),
(129,467,l),
(129,560,l),
(40,560,l)
);
}
);
width = 169;
},
{
layerId = "7B07347B-11DE-4909-BA20-F43005BA30D7";
shapes = (
{
closed = 1;
nodes = (
(35,0,l),
(188,0,l),
(188,153,l),
(35,153,l)
);
},
{
closed = 1;
nodes = (
(35,407,l),
(188,407,l),
(188,560,l),
(35,560,l)
);
}
);
width = 223;
}
);
unicode = 58;
}
{
color = 6;
glyphname = greater;
kernLeft = KO_greater;
kernRight = KO_greater;
layers = (
{
layerId = "A0F3C0B3-6058-4691-93DD-C4034CAB0732";
shapes = (
{
closed = 1;
nodes = (
(604,324,l),
(604,417,l),
(44,597,l),
(44,523,l),
(549,368,l),
(549,374,l),
(44,218,l),
(44,144,l)
);
}
);
width = 640;
},
{
layerId = "7B07347B-11DE-4909-BA20-F43005BA30D7";
shapes = (
{
closed = 1;
nodes = (
(600,274,l),
(600,467,l),
(40,637,l),
(40,494,l),
(507,369,l),
(507,373,l),
(40,247,l),
(40,104,l)
);
}
);
width = 640;
}
);
unicode = 62;
}
{
color = 6;
glyphname = at;
kernLeft = KO_at;
kernRight = KO_at;
layers = (
{
hints = (
{
horizontal = 1;
origin = (1,12);
target = up;
type = BottomGhost;
}
);
layerId = "A0F3C0B3-6058-4691-93DD-C4034CAB0732";
shapes = (
{
closed = 1;
nodes = (
(508,-64,o),
(587,-34,o),
(648,16,c),
(603,67,l),
(548,31,o),
(487,4,o),
(411,4,cs),
(228,4,o),
(113,145,o),
(113,310,cs),
(113,474,o),
(228,620,o),
(411,620,cs),
(593,620,o),
(714,474,o),
(714,310,cs),
(714,200,o),
(672,186,o),
(640,186,cs),
(598,186,o),
(575,211,o),
(575,270,cs),
(575,493,l),
(503,493,l),
(503,267,ls),
(503,160,o),
(567,118,o),
(637,118,cs),
(720,118,o),
(790,180,o),
(790,310,cs),
(790,518,o),
(640,688,o),
(411,688,cs),
(180,688,o),
(33,518,o),
(33,310,cs),
(33,100,o),
(180,-64,o),
(411,-64,cs)
);
},
{
closed = 1;
nodes = (
(453,118,o),
(509,166,o),
(519,203,c),
(507,432,l),
(492,473,o),
(446,505,o),
(382,505,cs),
(285,505,o),
(207,425,o),
(207,310,cs),
(207,197,o),
(285,118,o),
(383,118,cs)
);
},
{
closed = 1;
nodes = (
(323,183,o),
(283,236,o),
(283,310,cs),
(283,385,o),
(323,438,o),
(395,438,cs),
(460,438,o),
(503,389,o),
(503,310,cs),
(503,233,o),
(460,183,o),
(395,183,cs)
);
}
);
width = 823;
},
{
background = {
shapes = (
{
closed = 1;
nodes = (
(642,-16,o),
(806,148,o),
(806,350,cs),
(806,552,o),
(642,716,o),
(440,716,cs),
(238,716,o),
(74,552,o),
(74,350,cs),
(74,148,o),
(238,-16,o),
(440,-16,cs)
);
},
{
closed = 1;
nodes = (
(300,93,o),
(188,207,o),
(188,350,cs),
(188,493,o),
(300,607,o),
(440,607,cs),
(580,607,o),
(692,493,o),
(692,350,cs),
(692,207,o),
(580,93,o),
(440,93,cs)
);
}
);
};
layerId = "7B07347B-11DE-4909-BA20-F43005BA30D7";
shapes = (
{
closed = 1;
nodes = (
(559,-87,o),
(657,-27,o),
(681,3,c),
(609,81,l),
(542,36,o),
(472,25,o),
(421,25,cs),
(252,25,o),
(150,157,o),
(150,308,cs),
(150,462,o),
(263,583,o),
(432,583,cs),
(610,583,o),
(714,462,o),
(714,313,cs),
(714,260,o),
(691,227,o),
(652,227,cs),
(623,227,o),
(612,245,o),
(612,275,cs),
(612,486,l),
(505,486,l),
(505,268,ls),
(505,175,o),
(548,117,o),
(648,117,cs),
(762,117,o),
(835,193,o),
(835,325,cs),
(835,510,o),
(681,700,o),
(432,700,cs),
(199,700,o),
(28,516,o),
(28,308,cs),
(28,89,o),
(184,-87,o),
(423,-87,cs)
);
},
{
closed = 1;
nodes = (
(442,117,o),
(498,141,o),
(524,203,c),
(514,439,l),
(492,476,o),
(440,498,o),
(391,498,cs),
(300,498,o),
(224,422,o),
(224,307,cs),
(224,189,o),
(300,117,o),
(390,117,cs)
);
},
{
closed = 1;
nodes = (
(385,227,o),
(351,264,o),
(351,311,cs),
(351,360,o),
(385,395,o),
(429,395,cs),
(476,395,o),
(505,355,o),
(505,311,cs),
(505,267,o),
(476,227,o),
(429,227,cs)
);
}
);
width = 863;
},
{
associatedMasterId = "7B07347B-11DE-4909-BA20-F43005BA30D7";
background = {
shapes = (
{
closed = 1;
nodes = (
(596,-16,o),
(760,148,o),
(760,350,cs),
(760,552,o),
(596,716,o),
(394,716,cs),
(192,716,o),
(28,552,o),
(28,350,cs),
(28,148,o),
(192,-16,o),
(394,-16,cs)
);
},
{
closed = 1;
nodes = (
(254,93,o),
(142,207,o),
(142,350,cs),
(142,493,o),
(254,607,o),
(394,607,cs),
(534,607,o),
(646,493,o),
(646,350,cs),
(646,207,o),
(534,93,o),
(394,93,cs)
);
}
);
};
layerId = "E842A3E5-72A0-43D7-AC0D-39E18E83D78B";
name = "3 Sep 25 at 14:33";
shapes = (
{
closed = 1;
nodes = (
(522,-16,o),
(631,36,o),
(682,120,c),
(513,120,l),
(484,96,o),
(441,86,o),
(394,86,cs),
(237,86,o),
(149,211,o),
(149,351,cs),
(149,489,o),
(237,607,o),
(394,607,cs),
(560,607,o),
(638,489,o),
(638,351,cs),
(638,305,o),
(635,272,o),
(606,272,cs),
(585,272,o),
(575,289,o),
(575,314,cs),
(575,517,l),
(475,517,l),
(475,314,ls),
(475,228,o),
(503,178,o),
(606,178,cs),
(703,178,o),
(759,244,o),
(759,351,cs),
(759,552,o),
(626,716,o),
(394,716,cs),
(161,716,o),
(28,552,o),
(28,351,cs),
(28,148,o),
(161,-16,o),
(394,-16,cs)
);
},
{
closed = 1;
nodes = (
(417,174,o),
(470,207,o),
(484,254,c),
(475,473,l),
(451,508,o),
(415,528,o),
(363,528,cs),
(256,528,o),
(186,457,o),
(186,350,cs),
(186,244,o),
(256,174,o),
(363,174,cs)
);
},
{
closed = 1;
nodes = (
(319,263,o),
(288,300,o),
(288,350,cs),
(288,401,o),
(319,438,o),
(380,438,cs),
(445,438,o),
(475,401,o),
(475,350,cs),
(475,300,o),
(445,263,o),
(380,263,cs)
);
}
);
width = 787;
},
{
associatedMasterId = "A0F3C0B3-6058-4691-93DD-C4034CAB0732";
hints = (
{
horizontal = 1;
origin = (1,12);
target = up;
type = BottomGhost;
}
);
layerId = "4F3DE7B5-84AC-4CEB-8BDD-E5BA6D5C8358";
name = "3 Sep 25 at 14:33";
shapes = (
{
closed = 1;
nodes = (
(516,-16,o),
(612,37,o),
(673,120,c),
(571,120,l),
(526,77,o),
(465,51,o),
(389,51,cs),
(213,51,o),
(106,191,o),
(106,351,cs),
(106,509,o),
(213,649,o),
(389,649,cs),
(565,649,o),
(671,509,o),
(671,351,cs),
(671,244,o),
(642,215,o),
(611,215,cs),
(580,215,o),
(559,240,o),
(559,287,cs),
(559,548,l),
(488,548,l),
(488,287,ls),
(488,195,o),
(535,148,o),
(608,148,cs),
(700,148,o),
(744,225,o),
(744,351,cs),
(744,552,o),
(611,716,o),
(389,716,cs),
(166,716,o),
(33,552,o),
(33,351,cs),
(33,148,o),
(166,-16,o),
(389,-16,cs)
);
},
{
closed = 1;
nodes = (
(428,145,o),
(487,196,o),
(501,237,c),
(488,481,l),
(473,525,o),
(426,559,o),
(358,559,cs),
(254,559,o),
(182,473,o),
(182,351,cs),
(182,230,o),
(254,145,o),
(358,145,cs)
);
},
{
closed = 1;
nodes = (
(302,207,o),
(255,261,o),
(255,351,cs),
(255,442,o),
(302,496,o),
(367,496,cs),
(442,496,o),
(488,445,o),
(488,351,cs),
(488,258,o),
(442,207,o),
(367,207,cs)
);
}
);
width = 777;
}
);
metricRight = "=O";
unicode = 64;
}
{
color = 6;
glyphname = A;
kernLeft = KO_A;
kernRight = KO_A;
layers = (
{
anchors = (
{
name = bottom;
pos = (334,0);
},
{
name = ogonek;
pos = (647,0);
},
{
name = top;
pos = (334,700);
}
);
layerId = "7B07347B-11DE-4909-BA20-F43005BA30D7";
shapes = (
{
closed = 1;
nodes = (
(20,0,l),
(168,0,l),
(369,700,l),
(231,700,l)
);
},
{
closed = 1;
nodes = (
(298,700,l),
(499,0,l),
(647,0,l),
(436,700,l)
);
},
{
closed = 1;
nodes = (
(145,147,l),
(522,147,l),
(522,273,l),
(145,273,l)
);
}
);
width = 667;
},
{
anchors = (
{
name = bottom;
pos = (319,0);
},
{
name = ogonek;
pos = (612,0);
},
{
name = top;
pos = (314,700);
}
);
layerId = "A0F3C0B3-6058-4691-93DD-C4034CAB0732";
shapes = (
{
closed = 1;
nodes = (
(25,0,l),
(107,0,l),
(338,700,l),
(266,700,l)
);
},
{
closed = 1;
nodes = (
(289,700,l),
(530,0,l),
(612,0,l),
(361,700,l)
);
},
{
closed = 1;
nodes = (
(120,177,l),
(497,177,l),
(497,243,l),
(120,243,l)
);
}
);
width = 637;
}
);
unicode = 65;
userData = {
KernOnName = A;
};
}
{
color = 6;
glyphname = C;
kernLeft = KO_O;
kernRight = KO_C;
layers = (
{
anchors = (
{
name = bottom;
pos = (367,0);
},
{
name = top;
pos = (370,700);
}
);
layerId = "7B07347B-11DE-4909-BA20-F43005BA30D7";
shapes = (
{
closed = 1;
nodes = (
(542,285,l),
(534,182,o),
(485,116,o),
(374,116,cs),
(237,116,o),
(179,231,o),
(179,351,cs),
(179,469,o),
(237,584,o),
(374,584,cs),
(474,584,o),
(522,531,o),
(536,441,c),
(690,441,l),
(669,609,o),
(562,716,o),
(374,716,cs),
(151,716,o),
(28,552,o),
(28,351,cs),
(28,148,o),
(151,-16,o),
(374,-16,cs),
(571,-16,o),
(680,104,o),
(694,285,c)
);
}
);
width = 722;
},
{
anchors = (
{
name = bottom;
pos = (371,0);
},
{
name = top;
pos = (376,700);
}
);
layerId = "A0F3C0B3-6058-4691-93DD-C4034CAB0732";
shapes = (
{
closed = 1;
nodes = (
(622,285,l),
(614,182,o),
(560,56,o),
(379,56,cs),
(202,56,o),
(111,191,o),
(111,351,cs),
(111,509,o),
(202,644,o),
(379,644,cs),
(549,644,o),
(602,531,o),
(616,441,c),
(695,441,l),
(674,609,o),
(567,716,o),
(379,716,cs),
(156,716,o),
(33,552,o),
(33,351,cs),
(33,148,o),
(156,-16,o),
(379,-16,cs),
(576,-16,o),
(685,104,o),
(699,285,c)
);
}
);
width = 732;
}
);
metricLeft = "=O";
metricRight = "=O";
unicode = 67;
userData = {
KernOnName = C;
};
}
{
color = 6;
glyphname = E;
kernLeft = KO_H;
kernRight = KO_E;
layers = (
{
anchors = (
{
name = bottom;
pos = (264,0);
},
{
name = ogonek;
pos = (543,0);
},
{
name = top;
pos = (294,700);
},
{
name = topleft;
pos = (30,700);
}
);
layerId = "7B07347B-11DE-4909-BA20-F43005BA30D7";
shapes = (
{
closed = 1;
nodes = (
(543,0,l),
(543,126,l),
(197,126,l),
(197,289,l),
(499,289,l),
(499,415,l),
(197,415,l),
(197,574,l),
(539,574,l),
(539,700,l),
(52,700,l),
(52,0,l)
);
}
);
width = 585;
},
{
anchors = (
{
name = bottom;
pos = (263,0);
},
{
name = ogonek;
pos = (538,0);
},
{
name = top;
pos = (293,700);
},
{
name = topleft;
pos = (35,700);
}
);
layerId = "A0F3C0B3-6058-4691-93DD-C4034CAB0732";
shapes = (
{
closed = 1;
nodes = (
(538,0,l),
(538,68,l),
(132,68,l),
(132,318,l),
(494,318,l),
(494,386,l),
(132,386,l),
(132,632,l),
(534,632,l),
(534,700,l),
(57,700,l),
(57,0,l)
);
}
);
width = 585;
}
);
metricLeft = "=H";
metricRight = "=H-10";
unicode = 69;
userData = {
KernOnName = E;
};
}
{
color = 6;
glyphname = H;
kernLeft = KO_H;
kernRight = KO_H;
layers = (
{
anchors = (
{
name = bottom;
pos = (337,0);
},
{
name = center;
pos = (337,525);
},
{
name = top;
pos = (337,700);
},
{
name = topleft;
pos = (30,700);
}
);
layerId = "7B07347B-11DE-4909-BA20-F43005BA30D7";
shapes = (
{
closed = 1;
nodes = (
(52,0,l),
(197,0,l),
(197,700,l),
(52,700,l)
);
},
{
closed = 1;
nodes = (
(476,0,l),
(621,0,l),
(621,700,l),
(476,700,l)
);
},
{
closed = 1;
nodes = (
(107,289,l),
(599,289,l),
(599,415,l),
(107,415,l)
);
}
);
width = 673;
},
{
anchors = (
{
name = bottom;
pos = (332,0);
},
{
name = center;
pos = (332,525);
},
{
name = top;
pos = (332,700);
},
{
name = topleft;
pos = (35,700);
}
);
layerId = "A0F3C0B3-6058-4691-93DD-C4034CAB0732";
shapes = (
{
closed = 1;
nodes = (
(57,0,l),
(132,0,l),
(132,700,l),
(57,700,l)
);
},
{
closed = 1;
nodes = (
(531,0,l),
(606,0,l),
(606,700,l),
(531,700,l)
);
},
{
closed = 1;
nodes = (
(92,319,l),
(584,319,l),
(584,385,l),
(92,385,l)
);
}
);
width = 663;
}
);
unicode = 72;
userData = {
KernOnName = H;
};
}
{
color = 6;
glyphname = I;
kernLeft = KO_H;
kernRight = KO_H;
layers = (
{
anchors = (
{
name = bottom;
pos = (125,0);
},
{
name = ogonek;
pos = (197,0);
},
{
name = top;
pos = (125,700);
},
{
name = topleft;
pos = (30,700);
}
);
layerId = "7B07347B-11DE-4909-BA20-F43005BA30D7";
shapes = (
{
closed = 1;
nodes = (
(52,0,l),
(197,0,l),
(197,700,l),
(52,700,l)
);
}
);
width = 249;
},
{
anchors = (
{
name = bottom;
pos = (95,0);
},
{
name = ogonek;
pos = (132,0);
},
{
name = top;
pos = (95,700);
},
{
name = topleft;
pos = (35,700);
}
);
layerId = "A0F3C0B3-6058-4691-93DD-C4034CAB0732";
shapes = (
{
closed = 1;
nodes = (
(57,0,l),
(132,0,l),
(132,700,l),
(57,700,l)
);
}
);
width = 189;
}
);
metricLeft = "=H";
metricRight = "=H";
unicode = 73;
userData = {
KernOnName = I;
};
}
{
color = 6;
glyphname = J;
kernLeft = KO_J;
kernRight = KO_J;
layers = (
{
anchors = (
{
name = bottom;
pos = (175,0);
},
{
name = top;
pos = (224,700);
}
);
layerId = "7B07347B-11DE-4909-BA20-F43005BA30D7";
shapes = (
{
closed = 1;
nodes = (
(152,700,l),
(152,176,l),
(152,143,o),
(136,126,o),
(100,126,c),
(30,126,l),
(30,0,l),
(101,0,l),
(232,0,o),
(297,57,o),
(297,172,c),
(297,700,l)
);
}
);
width = 349;
},
{
anchors = (
{
name = bottom;
pos = (162,0);
},
{
name = top;
pos = (231,700);
}
);
layerId = "A0F3C0B3-6058-4691-93DD-C4034CAB0732";
shapes = (
{
closed = 1;
nodes = (
(194,700,l),
(194,132,l),
(194,78,o),
(175,62,o),
(135,62,c),
(35,62,l),
(35,0,l),
(136,0,l),
(227,0,o),
(267,42,o),
(267,132,c),
(267,700,l)
);
}
);
width = 324;
}
);
metricRight = "=H";
unicode = 74;
userData = {
KernOnName = J;
};
}
{
color = 6;
glyphname = K;
kernLeft = KO_H;
kernRight = KO_K;
layers = (
{
anchors = (
{
name = bottom;
pos = (323,0);
},
{
name = top;
pos = (323,700);
}
);
layerId = "7B07347B-11DE-4909-BA20-F43005BA30D7";
shapes = (
{
closed = 1;
nodes = (
(52,0,l),
(195,0,l),
(195,700,l),
(52,700,l)
);
},
{
closed = 1;
nodes = (
(417,700,l),
(60,247,l),
(141,126,l),
(595,700,l)
);
},
{
closed = 1;
nodes = (
(227,335,l),
(437,0,l),
(615,0,l),
(314,448,l)
);
}
);
width = 641;
},
{
anchors = (
{
name = bottom;
pos = (308,0);
},
{
name = top;
pos = (308,700);
}
);
layerId = "A0F3C0B3-6058-4691-93DD-C4034CAB0732";
shapes = (
{
closed = 1;
nodes = (
(57,0,l),
(132,0,l),
(132,700,l),
(57,700,l)
);
},
{
closed = 1;
nodes = (
(472,700,l),
(123,262,l),
(107,128,l),
(563,700,l)
);
},
{
closed = 1;
nodes = (
(267,343,l),
(482,0,l),
(580,0,l),
(302,419,l)
);
}
);
width = 611;
}
);
metricLeft = "=H";
unicode = 75;
userData = {
KernOnName = K;
};
}
{
color = 6;
glyphname = L;
kernLeft = KO_H;
kernRight = KO_L;
layers = (
{
anchors = (
{
name = bottom;
pos = (257,0);
},
{
name = center;
pos = (257,350);
},
{
name = top;
pos = (118,700);
},
{
name = topright;
pos = (247,700);
}
);
layerId = "7B07347B-11DE-4909-BA20-F43005BA30D7";
shapes = (
{
closed = 1;
nodes = (
(52,0,l),
(197,0,l),
(197,700,l),
(52,700,l)
);
},
{
closed = 1;
nodes = (
(197,0,l),
(483,0,l),
(483,126,l),
(197,126,l)
);
}
);
width = 503;
},
{
anchors = (
{
name = bottom;
pos = (252,0);
},
{
name = center;
pos = (252,350);
},
{
name = top;
pos = (94,700);
},
{
name = topright;
pos = (209,700);
}
);
layerId = "A0F3C0B3-6058-4691-93DD-C4034CAB0732";
shapes = (
{
closed = 1;
nodes = (
(57,0,l),
(132,0,l),
(132,700,l),
(57,700,l)
);
},
{
closed = 1;
nodes = (
(85,0,l),
(468,0,l),
(468,66,l),
(85,66,l)
);
}
);
width = 493;
}
);
metricLeft = "=H";
unicode = 76;
userData = {
KernOnName = L;
};
}
{
color = 6;
glyphname = N;
kernLeft = KO_H;
kernRight = KO_H;
layers = (
{
anchors = (
{
name = bottom;
pos = (348,0);
},
{
name = top;
pos = (348,700);
}
);
layerId = "7B07347B-11DE-4909-BA20-F43005BA30D7";
shapes = (
{
closed = 1;
nodes = (
(587,0,l),
(266,700,l),
(108,700,l),
(429,0,l)
);
},
{
closed = 1;
nodes = (
(52,0,l),
(192,0,l),
(192,700,l),
(52,700,l)
);
},
{
closed = 1;
nodes = (
(503,0,l),
(643,0,l),
(643,700,l),
(503,700,l)
);
}
);
width = 695;
},
{
anchors = (
{
name = bottom;
pos = (313,0);
},
{
name = top;
pos = (313,700);
}
);
layerId = "A0F3C0B3-6058-4691-93DD-C4034CAB0732";
shapes = (
{
closed = 1;
nodes = (
(552,0,l),
(156,700,l),
(73,700,l),
(469,0,l)
);
},
{
closed = 1;
nodes = (
(57,0,l),
(127,0,l),
(127,700,l),
(57,700,l)
);
},
{
closed = 1;
nodes = (
(498,0,l),
(568,0,l),
(568,700,l),
(498,700,l)
);
}
);
width = 625;
}
);
metricLeft = "=H";
metricRight = "=H";
unicode = 78;
userData = {
KernOnName = N;
};
}
{
color = 6;
glyphname = R;
kernLeft = KO_H;
kernRight = KO_R;
layers = (
{
anchors = (
{
name = bottom;
pos = (317,0);
},
{
name = top;
pos = (303,700);
}
);
layerId = "7B07347B-11DE-4909-BA20-F43005BA30D7";
shapes = (
{
closed = 1;
nodes = (
(52,0,l),
(197,0,l),
(197,700,l),
(52,700,l)
);
},
{
closed = 1;
nodes = (
(107,240,l),
(294,240,l),
(294,366,l),
(107,366,l)
);
},
{
closed = 1;
nodes = (
(294,240,l),
(476,240,o),
(599,299,o),
(599,470,cs),
(599,641,o),
(476,700,o),
(294,700,c),
(294,574,l),
(390,574,o),
(448,550,o),
(448,470,cs),
(448,390,o),
(390,366,o),
(294,366,c)
);
},
{
closed = 1;
nodes = (
(107,574,l),
(294,574,l),
(294,700,l),
(107,700,l)
);
},
{
closed = 1;
nodes = (
(439,0,l),
(604,0,l),
(447,323,l),
(302,323,l)
);
}
);
width = 642;
},
{
anchors = (
{
name = bottom;
pos = (320,0);
},
{
name = top;
pos = (293,700);
}
);
layerId = "A0F3C0B3-6058-4691-93DD-C4034CAB0732";
shapes = (
{
closed = 1;
nodes = (
(57,0,l),
(132,0,l),
(132,700,l),
(57,700,l)
);
},
{
closed = 1;
nodes = (
(112,270,l),
(299,270,l),
(299,336,l),
(112,336,l)
);
},
{
closed = 1;
nodes = (
(299,270,l),
(491,270,o),
(604,325,o),
(604,486,cs),
(604,647,o),
(491,700,o),
(299,700,c),
(299,634,l),
(445,634,o),
(526,606,o),
(526,486,cs),
(526,366,o),
(445,336,o),
(299,336,c)
);
},
{
closed = 1;
nodes = (
(112,634,l),
(299,634,l),
(299,700,l),
(112,700,l)
);
},
{
closed = 1;
nodes = (
(504,0,l),
(589,0,l),
(432,323,l),
(357,323,l)
);
}
);
width = 647;
}
);
metricLeft = "=H";
unicode = 82;
userData = {
KernOnName = R;
};
}
{
color = 6;
glyphname = U;
kernLeft = KO_U;
kernRight = KO_U;
layers = (
{
anchors = (
{
name = bottom;
pos = (337,0);
},
{
name = ogonek;
pos = (481,10);
},
{
name = top;
pos = (337,700);
},
{
name = topright;
pos = (643,700);
}
);
layerId = "7B07347B-11DE-4909-BA20-F43005BA30D7";
shapes = (
{
closed = 1;
nodes = (
(481,300,l),
(481,184,o),
(449,115,o),
(337,115,cs),
(224,115,o),
(192,184,o),
(192,300,c),
(47,300,l),
(47,102,o),
(128,-16,o),
(337,-16,cs),
(545,-16,o),
(626,102,o),
(626,300,c)
);
},
{
closed = 1;
nodes = (
(47,300,l),
(192,300,l),
(192,700,l),
(47,700,l)
);
},
{
closed = 1;
nodes = (
(481,300,l),
(626,300,l),
(626,700,l),
(481,700,l)
);
}
);
width = 673;
},
{
anchors = (
{
name = bottom;
pos = (312,0);
},
{
name = ogonek;
pos = (417,0);
},
{
name = top;
pos = (312,700);
},
{
name = topright;
pos = (588,700);
}
);
layerId = "A0F3C0B3-6058-4691-93DD-C4034CAB0732";
shapes = (
{
closed = 1;
nodes = (
(496,300,l),
(496,144,o),
(454,56,o),
(312,56,cs),
(169,56,o),
(127,144,o),
(127,300,c),
(52,300,l),
(52,102,o),
(123,-16,o),
(312,-16,cs),
(500,-16,o),
(571,102,o),
(571,300,c)
);
},
{
closed = 1;
nodes = (
(52,300,l),
(127,300,l),
(127,700,l),
(52,700,l)
);
},
{
closed = 1;
nodes = (
(496,300,l),
(571,300,l),
(571,700,l),
(496,700,l)
);
}
);
width = 623;
}
);
metricLeft = "=H-5";
metricRight = "=H-5";
unicode = 85;
userData = {
KernOnName = U;
};
}
{
color = 6;
glyphname = V;
kernLeft = KO_V;
kernRight = KO_V;
layers = (
{
anchors = (
{
name = bottom;
pos = (334,0);
},
{
name = top;
pos = (334,700);
}
);
layerId = "7B07347B-11DE-4909-BA20-F43005BA30D7";
shapes = (
{
closed = 1;
nodes = (
(369,0,l),
(168,700,l),
(20,700,l),
(231,0,l)
);
},
{
closed = 1;
nodes = (
(647,700,l),
(499,700,l),
(298,0,l),
(436,0,l)
);
}
);
width = 667;
},
{
anchors = (
{
name = bottom;
pos = (319,0);
},
{
name = top;
pos = (319,700);
}
);
layerId = "A0F3C0B3-6058-4691-93DD-C4034CAB0732";
shapes = (
{
closed = 1;
nodes = (
(338,0,l),
(107,700,l),
(25,700,l),
(266,0,l)
);
},
{
closed = 1;
nodes = (
(612,700,l),
(530,700,l),
(289,0,l),
(361,0,l)
);
}
);
width = 637;
}
);
unicode = 86;
userData = {
KernOnName = V;
};
}
{
color = 6;
glyphname = Y;
kernLeft = KO_Y;
kernRight = KO_Y;
layers = (
{
anchors = (
{
name = bottom;
pos = (314,0);
},
{
name = top;
pos = (314,700);
},
{
name = topleft;
pos = (30,700);
}
);
layerId = "7B07347B-11DE-4909-BA20-F43005BA30D7";
shapes = (
{
closed = 1;
nodes = (
(367,192,l),
(607,700,l),
(459,700,l),
(295,339,l),
(333,339,l),
(168,700,l),
(20,700,l),
(260,192,l)
);
},
{
closed = 1;
nodes = (
(241,0,l),
(386,0,l),
(386,349,l),
(241,349,l)
);
}
);
width = 627;
},
{
anchors = (
{
name = bottom;
pos = (289,0);
},
{
name = top;
pos = (289,700);
},
{
name = topleft;
pos = (35,700);
}
);
layerId = "A0F3C0B3-6058-4691-93DD-C4034CAB0732";
shapes = (
{
closed = 1;
nodes = (
(312,222,l),
(552,700,l),
(464,700,l),
(276,297,l),
(302,297,l),
(113,700,l),
(25,700,l),
(265,222,l)
);
},
{
closed = 1;
nodes = (
(251,0,l),
(326,0,l),
(326,309,l),
(251,309,l)
);
}
);
width = 577;
}
);
metricRight = "=V";
unicode = 89;
userData = {
KernOnName = Y;
};
}
{
color = 6;
glyphname = Z;
kernLeft = KO_Z;
kernRight = KO_Z;
layers = (
{
anchors = (
{
name = bottom;
pos = (303,0);
},
{
name = center;
pos = (303,350);
},
{
name = top;
pos = (303,700);
}
);
layerId = "7B07347B-11DE-4909-BA20-F43005BA30D7";
shapes = (
{
closed = 1;
nodes = (
(40,574,l),
(493,574,l),
(571,617,l),
(571,700,l),
(40,700,l)
);
},
{
closed = 1;
nodes = (
(571,617,l),
(571,700,l),
(454,700,l),
(30,83,l),
(148,0,l)
);
},
{
closed = 1;
nodes = (
(575,126,l),
(108,126,l),
(30,83,l),
(30,0,l),
(575,0,l)
);
}
);
width = 605;
},
{
anchors = (
{
name = bottom;
pos = (293,0);
},
{
name = center;
pos = (293,350);
},
{
name = top;
pos = (293,700);
}
);
layerId = "A0F3C0B3-6058-4691-93DD-C4034CAB0732";
shapes = (
{
closed = 1;
nodes = (
(45,634,l),
(468,634,l),
(546,657,l),
(546,700,l),
(45,700,l)
);
},
{
closed = 1;
nodes = (
(546,657,l),
(546,700,l),
(491,700,l),
(35,43,l),
(91,0,l)
);
},
{
closed = 1;
nodes = (
(550,66,l),
(113,66,l),
(35,43,l),
(35,0,l),
(550,0,l)
);
}
);
width = 585;
}
);
unicode = 90;
userData = {
KernOnName = Z;
};
}
{
color = 6;
glyphname = bracketleft;
kernLeft = KO_exclam;
kernRight = KO_bracketleft;
layers = (
{
layerId = "A0F3C0B3-6058-4691-93DD-C4034CAB0732";
shapes = (
{
closed = 1;
nodes = (
(57,-156,l),
(129,-156,l),
(129,700,l),
(57,700,l)
);
},
{
closed = 1;
nodes = (
(129,647,l),
(274,647,l),
(274,700,l),
(129,700,l)
);
},
{
closed = 1;
nodes = (
(129,-156,l),
(274,-156,l),
(274,-103,l),
(129,-103,l)
);
}
);
width = 299;
},
{
layerId = "7B07347B-11DE-4909-BA20-F43005BA30D7";
shapes = (
{
closed = 1;
nodes = (
(52,-156,l),
(178,-156,l),
(178,700,l),
(52,700,l)
);
},
{
closed = 1;
nodes = (
(178,620,l),
(341,620,l),
(341,700,l),
(178,700,l)
);
},
{
closed = 1;
nodes = (
(178,-156,l),
(341,-156,l),
(341,-76,l),
(178,-76,l)
);
}
);
width = 361;
}
);
metricRight = "=parenleft";
unicode = 91;
}
{
color = 6;
glyphname = bracketright;
kernLeft = KO_bracketright;
kernRight = KO_exclam;
layers = (
{
layerId = "A0F3C0B3-6058-4691-93DD-C4034CAB0732";
shapes = (
{
closed = 1;
nodes = (
(170,700,l),
(170,-156,l),
(242,-156,l),
(242,700,l)
);
},
{
closed = 1;
nodes = (
(25,700,l),
(25,647,l),
(170,647,l),
(170,700,l)
);
},
{
closed = 1;
nodes = (
(25,-103,l),
(25,-156,l),
(170,-156,l),
(170,-103,l)
);
}
);
width = 299;
},
{
layerId = "7B07347B-11DE-4909-BA20-F43005BA30D7";
shapes = (
{
closed = 1;
nodes = (
(183,700,l),
(183,-156,l),
(309,-156,l),
(309,700,l)
);
},
{
closed = 1;
nodes = (
(20,700,l),
(20,620,l),
(183,620,l),
(183,700,l)
);
},
{
closed = 1;
nodes = (
(20,-76,l),
(20,-156,l),
(183,-156,l),
(183,-76,l)
);
}
);
width = 361;
}
);
metricRight = "=H";
unicode = 93;
}
{
color = 6;
glyphname = asciicircum;
kernLeft = KO_asciicircum;
kernRight = KO_asciicircum;
layers = (
{
layerId = "A0F3C0B3-6058-4691-93DD-C4034CAB0732";
shapes = (
{
closed = 1;
nodes = (
(110,364,l),
(210,700,l),
(147,700,l),
(35,364,l)
);
},
{
closed = 1;
nodes = (
(342,364,l),
(230,700,l),
(167,700,l),
(267,364,l)
);
}
);
width = 377;
},
{
layerId = "7B07347B-11DE-4909-BA20-F43005BA30D7";
shapes = (
{
closed = 1;
nodes = (
(165,364,l),
(255,700,l),
(132,700,l),
(30,364,l)
);
},
{
closed = 1;
nodes = (
(407,364,l),
(305,700,l),
(182,700,l),
(272,364,l)
);
}
);
width = 437;
}
);
unicode = 94;
}
{
color = 6;
glyphname = a;
kernLeft = KO_a;
kernRight = KO_a;
layers = (
{
anchors = (
{
name = bottom;
pos = (286,0);
},
{
name = ogonek;
pos = (532,0);
},
{
name = top;
pos = (291,560);
}
);
layerId = "7B07347B-11DE-4909-BA20-F43005BA30D7";
shapes = (
{
closed = 1;
nodes = (
(389,0,l),
(532,0,l),
(532,320,l),
(389,320,l)
);
},
{
closed = 1;
nodes = (
(127,576,o),
(35,477,o),
(35,363,c),
(184,363,l),
(184,409,o),
(219,451,o),
(290,451,cs),
(374,451,o),
(389,391,o),
(389,320,c),
(532,320,l),
(532,477,o),
(448,576,o),
(290,576,c)
);
},
{
closed = 1;
nodes = (
(254,349,o),
(54,338,o),
(54,159,cs),
(54,47,o),
(133,-16,o),
(243,-16,cs),
(350,-16,o),
(416,65,o),
(416,177,c),
(389,221,l),
(389,130,o),
(323,114,o),
(271,114,cs),
(235,114,o),
(203,131,o),
(203,167,cs),
(203,220,o),
(267,264,o),
(424,257,c),
(403,352,l)
);
}
);
width = 576;
},
{
anchors = (
{
name = bottom;
pos = (271,0);
},
{
name = ogonek;
pos = (497,0);
},
{
name = top;
pos = (271,560);
}
);
layerId = "A0F3C0B3-6058-4691-93DD-C4034CAB0732";
shapes = (
{
closed = 1;
nodes = (
(424,0,l),
(497,0,l),
(497,320,l),
(424,320,l)
);
},
{
closed = 1;
nodes = (
(122,576,o),
(40,471,o),
(40,363,c),
(119,363,l),
(119,445,o),
(174,508,o),
(275,508,cs),
(375,508,o),
(424,441,o),
(424,320,c),
(497,320,l),
(497,477,o),
(423,576,o),
(275,576,c)
);
},
{
closed = 1;
nodes = (
(249,359,o),
(49,338,o),
(49,159,cs),
(49,47,o),
(137,-16,o),
(247,-16,cs),
(375,-16,o),
(428,58,o),
(451,170,c),
(424,221,l),
(424,130,o),
(371,44,o),
(266,44,cs),
(171,44,o),
(125,86,o),
(125,163,cs),
(125,251,o),
(236,306,o),
(449,281,c),
(428,342,l)
);
}
);
width = 546;
}
);
metricRight = "=n";
unicode = 97;
userData = {
KernOnName = a;
};
}
{
color = 6;
glyphname = b;
kernLeft = KO_l;
kernRight = KO_p;
layers = (
{
anchors = (
{
name = bottom;
pos = (316,0);
},
{
name = center;
pos = (159,600);
},
{
name = top;
pos = (316,560);
}
);
layerId = "7B07347B-11DE-4909-BA20-F43005BA30D7";
shapes = (
{
closed = 1;
nodes = (
(510,-16,o),
(603,106,o),
(603,279,cs),
(603,453,o),
(510,576,o),
(351,576,cs),
(223,576,o),
(166,495,o),
(140,360,c),
(142,196,l),
(164,72,o),
(215,-16,o),
(351,-16,cs)
);
},
{
closed = 1;
nodes = (
(191,0,l),
(191,750,l),
(48,750,l),
(48,0,l)
);
},
{
closed = 1;
nodes = (
(234,112,o),
(191,186,o),
(191,279,cs),
(191,373,o),
(234,448,o),
(326,448,cs),
(413,448,o),
(457,373,o),
(457,279,cs),
(457,186,o),
(413,112,o),
(326,112,cs)
);
}
);
width = 628;
},
{
anchors = (
{
name = bottom;
pos = (306,0);
},
{
name = center;
pos = (157,600);
},
{
name = top;
pos = (306,560);
}
);
layerId = "A0F3C0B3-6058-4691-93DD-C4034CAB0732";
shapes = (
{
closed = 1;
nodes = (
(475,-16,o),
(578,106,o),
(578,279,cs),
(578,453,o),
(475,576,o),
(326,576,cs),
(179,576,o),
(101,465,o),
(95,310,c),
(97,246,l),
(99,102,o),
(171,-16,o),
(326,-16,cs)
);
},
{
closed = 1;
nodes = (
(126,0,l),
(126,750,l),
(53,750,l),
(53,0,l)
);
},
{
closed = 1;
nodes = (
(192,52,o),
(126,146,o),
(126,279,cs),
(126,413,o),
(192,508,o),
(321,508,cs),
(428,508,o),
(502,423,o),
(502,279,cs),
(502,136,o),
(428,52,o),
(321,52,cs)
);
}
);
width = 608;
}
);
metricLeft = "=l";
metricRight = "=o";
unicode = 98;
userData = {
KernOnName = b;
};
}
{
color = 6;
glyphname = e;
kernLeft = KO_o;
kernRight = KO_e;
layers = (
{
anchors = (
{
name = bottom;
pos = (298,0);
},
{
name = ogonek;
pos = (410,0);
},
{
name = top;
pos = (298,560);
}
);
layerId = "7B07347B-11DE-4909-BA20-F43005BA30D7";
shapes = (
{
closed = 1;
nodes = (
(447,-16,o),
(544,63,o),
(568,178,c),
(417,178,l),
(402,140,o),
(365,112,o),
(311,112,cs),
(208,112,o),
(171,186,o),
(171,279,cs),
(171,373,o),
(208,448,o),
(311,448,cs),
(399,448,o),
(432,379,o),
(423,321,c),
(469,348,l),
(106,348,l),
(106,232,l),
(566,232,l),
(597,451,o),
(463,576,o),
(311,576,cs),
(138,576,o),
(25,453,o),
(25,279,cs),
(25,106,o),
(138,-16,o),
(311,-16,cs)
);
}
);
width = 595;
},
{
anchors = (
{
name = bottom;
pos = (302,0);
},
{
name = ogonek;
pos = (415,0);
},
{
name = top;
pos = (302,560);
}
);
layerId = "A0F3C0B3-6058-4691-93DD-C4034CAB0732";
shapes = (
{
closed = 1;
nodes = (
(452,-16,o),
(541,62,o),
(570,177,c),
(493,177,l),
(471,107,o),
(418,52,o),
(316,52,cs),
(183,52,o),
(106,146,o),
(106,279,cs),
(106,413,o),
(183,508,o),
(316,508,cs),
(433,508,o),
(504,417,o),
(505,285,c),
(548,321,l),
(72,321,l),
(72,255,l),
(572,255,l),
(586,458,o),
(468,576,o),
(316,576,cs),
(143,576,o),
(30,453,o),
(30,279,cs),
(30,106,o),
(143,-16,o),
(316,-16,cs)
);
}
);
width = 603;
}
);
metricLeft = "=o";
metricRight = "=o";
unicode = 101;
}
{
color = 6;
glyphname = g;
kernLeft = KO_g;
kernRight = KO_u;
layers = (
{
anchors = (
{
name = bottom;
pos = (309,-200);
},
{
name = top;
pos = (309,560);
}
);
layerId = "7B07347B-11DE-4909-BA20-F43005BA30D7";
shapes = (
{
closed = 1;
nodes = (
(413,4,o),
(464,82,o),
(486,206,c),
(488,370,l),
(462,505,o),
(405,576,o),
(277,576,cs),
(118,576,o),
(25,463,o),
(25,289,cs),
(25,116,o),
(118,4,o),
(277,4,cs)
);
},
{
closed = 1;
nodes = (
(467,-216,o),
(580,-128,o),
(580,30,c),
(437,30,l),
(437,-60,o),
(382,-88,o),
(322,-88,cs),
(263,-88,o),
(215,-76,o),
(201,-24,c),
(54,-24,l),
(70,-119,o),
(144,-216,o),
(322,-216,cs)
);
},
{
closed = 1;
nodes = (
(215,132,o),
(171,196,o),
(171,289,cs),
(171,383,o),
(215,448,o),
(302,448,cs),
(394,448,o),
(437,383,o),
(437,289,cs),
(437,196,o),
(394,132,o),
(302,132,cs)
);
},
{
closed = 1;
nodes = (
(580,30,l),
(580,560,l),
(437,560,l),
(437,30,l)
);
}
);
width = 626;
},
{
anchors = (
{
name = bottom;
pos = (299,-200);
},
{
name = top;
pos = (299,560);
}
);
layerId = "A0F3C0B3-6058-4691-93DD-C4034CAB0732";
shapes = (
{
closed = 1;
nodes = (
(437,4,o),
(509,112,o),
(511,256,c),
(513,320,l),
(507,475,o),
(429,576,o),
(282,576,cs),
(133,576,o),
(30,463,o),
(30,289,cs),
(30,116,o),
(133,4,o),
(282,4,cs)
);
},
{
closed = 1;
nodes = (
(462,-216,o),
(555,-128,o),
(555,30,c),
(482,30,l),
(482,-90,o),
(427,-148,o),
(317,-148,cs),
(208,-148,o),
(148,-103,o),
(136,-24,c),
(59,-24,l),
(75,-119,o),
(139,-216,o),
(317,-216,cs)
);
},
{
closed = 1;
nodes = (
(180,72,o),
(106,146,o),
(106,289,cs),
(106,433,o),
(180,508,o),
(287,508,cs),
(416,508,o),
(482,423,o),
(482,289,cs),
(482,156,o),
(416,72,o),
(287,72,cs)
);
},
{
closed = 1;
nodes = (
(555,30,l),
(555,560,l),
(482,560,l),
(482,30,l)
);
}
);
width = 606;
}
);
metricLeft = "=o";
metricRight = "=|n";
unicode = 103;
userData = {
KernOnName = g;
};
}
{
color = 6;
glyphname = i;
kernLeft = KO_i;
kernRight = KO_i;
layers = (
{
anchors = (
{
name = bottom;
pos = (125,0);
}
);
layerId = "7B07347B-11DE-4909-BA20-F43005BA30D7";
shapes = (
{
closed = 1;
nodes = (
(53,0,l),
(196,0,l),
(196,560,l),
(53,560,l)
);
},
{
closed = 1;
nodes = (
(48,597,l),
(201,597,l),
(201,750,l),
(48,750,l)
);
}
);
width = 249;
},
{
anchors = (
{
name = bottom;
pos = (98,0);
}
);
layerId = "A0F3C0B3-6058-4691-93DD-C4034CAB0732";
shapes = (
{
closed = 1;
nodes = (
(61,0,l),
(134,0,l),
(134,560,l),
(61,560,l)
);
},
{
closed = 1;
nodes = (
(53,657,l),
(142,657,l),
(142,750,l),
(53,750,l)
);
}
);
width = 195;
}
);
metricLeft = "=l";
metricRight = "=l";
unicode = 105;
userData = {
KernOnName = i;
};
}
{
color = 6;
glyphname = j;
kernLeft = KO_j;
kernRight = KO_i;
layers = (
{
layerId = "7B07347B-11DE-4909-BA20-F43005BA30D7";
shapes = (
{
closed = 1;
nodes = (
(47,597,l),
(200,597,l),
(200,750,l),
(47,750,l)
);
},
{
closed = 1;
nodes = (
(52,560,l),
(52,-28,l),
(52,-61,o),
(34,-78,o),
(-2,-78,c),
(-72,-78,l),
(-72,-200,l),
(-1,-200,l),
(130,-200,o),
(195,-143,o),
(195,-28,c),
(195,560,l)
);
}
);
width = 248;
},
{
layerId = "A0F3C0B3-6058-4691-93DD-C4034CAB0732";
shapes = (
{
closed = 1;
nodes = (
(104,657,l),
(193,657,l),
(193,750,l),
(104,750,l)
);
},
{
closed = 1;
nodes = (
(112,560,l),
(112,-68,l),
(112,-122,o),
(93,-138,o),
(53,-138,c),
(-47,-138,l),
(-47,-200,l),
(54,-200,l),
(145,-200,o),
(185,-158,o),
(185,-68,c),
(185,560,l)
);
}
);
width = 246;
}
);
metricRight = "=i";
unicode = 106;
userData = {
KernOnName = j;
};
}
{
color = 6;
glyphname = k;
kernLeft = KO_l;
kernRight = KO_k;
layers = (
{
anchors = (
{
name = bottom;
pos = (274,0);
},
{
name = top;
pos = (274,750);
}
);
layerId = "7B07347B-11DE-4909-BA20-F43005BA30D7";
shapes = (
{
closed = 1;
nodes = (
(48,0,l),
(191,0,l),
(191,750,l),
(48,750,l)
);
},
{
closed = 1;
nodes = (
(378,0,l),
(534,0,l),
(340,336,l),
(197,336,l)
);
},
{
closed = 1;
nodes = (
(353,560,l),
(106,247,l),
(177,126,l),
(521,560,l)
);
}
);
width = 556;
},
{
anchors = (
{
name = bottom;
pos = (254,0);
},
{
name = top;
pos = (254,750);
}
);
layerId = "A0F3C0B3-6058-4691-93DD-C4034CAB0732";
shapes = (
{
closed = 1;
nodes = (
(53,0,l),
(126,0,l),
(126,750,l),
(53,750,l)
);
},
{
closed = 1;
nodes = (
(399,0,l),
(489,0,l),
(258,355,l),
(194,319,l)
);
},
{
closed = 1;
nodes = (
(364,560,l),
(91,243,l),
(82,126,l),
(456,560,l)
);
}
);
width = 511;
}
);
metricLeft = "=l";
metricRight = "=22";
unicode = 107;
userData = {
KernOnName = k;
};
}
{
color = 6;
glyphname = q;
kernLeft = KO_d;
kernRight = KO_q;
layers = (
{
anchors = (
{
name = bottom;
pos = (313,0);
},
{
name = top;
pos = (313,560);
}
);
layerId = "7B07347B-11DE-4909-BA20-F43005BA30D7";
shapes = (
{
closed = 1;
nodes = (
(413,-16,o),
(464,72,o),
(486,196,c),
(488,360,l),
(462,495,o),
(405,576,o),
(277,576,cs),
(118,576,o),
(25,453,o),
(25,279,cs),
(25,106,o),
(118,-16,o),
(277,-16,cs)
);
},
{
closed = 1;
nodes = (
(215,112,o),
(171,186,o),
(171,279,cs),
(171,373,o),
(215,448,o),
(302,448,cs),
(394,448,o),
(437,373,o),
(437,279,cs),
(437,186,o),
(394,112,o),
(302,112,cs)
);
},
{
closed = 1;
nodes = (
(580,-200,l),
(580,560,l),
(437,560,l),
(437,-200,l)
);
}
);
width = 628;
},
{
anchors = (
{
name = bottom;
pos = (303,0);
},
{
name = top;
pos = (303,560);
}
);
layerId = "A0F3C0B3-6058-4691-93DD-C4034CAB0732";
shapes = (
{
closed = 1;
nodes = (
(437,-16,o),
(509,102,o),
(511,246,c),
(513,310,l),
(507,465,o),
(429,576,o),
(282,576,cs),
(133,576,o),
(30,453,o),
(30,279,cs),
(30,106,o),
(133,-16,o),
(282,-16,cs)
);
},
{
closed = 1;
nodes = (
(180,52,o),
(106,136,o),
(106,279,cs),
(106,423,o),
(180,508,o),
(287,508,cs),
(416,508,o),
(482,413,o),
(482,279,cs),
(482,146,o),
(416,52,o),
(287,52,cs)
);
},
{
closed = 1;
nodes = (
(555,-200,l),
(555,560,l),
(482,560,l),
(482,-200,l)
);
}
);
width = 608;
}
);
metricLeft = "=o";
metricRight = "=l";
unicode = 113;
}
{
color = 6;
glyphname = u;
kernLeft = KO_u;
kernRight = KO_u;
layers = (
{
anchors = (
{
name = bottom;
pos = (298,0);
},
{
name = ogonek;
pos = (550,0);
},
{
name = top;
pos = (298,560);
},
{
name = topright;
pos = (567,560);
}
);
layerId = "7B07347B-11DE-4909-BA20-F43005BA30D7";
shapes = (
{
closed = 1;
nodes = (
(550,560,l),
(407,560,l),
(407,0,l),
(550,0,l)
);
},
{
closed = 1;
nodes = (
(407,153,o),
(330,108,o),
(270,108,cs),
(194,108,o),
(186,162,o),
(186,228,cs),
(186,560,l),
(44,560,l),
(44,215,ls),
(44,44,o),
(122,-16,o),
(230,-16,cs),
(393,-16,o),
(423,101,o),
(423,171,c),
(407,286,l)
);
}
);
width = 596;
},
{
anchors = (
{
name = bottom;
pos = (278,0);
},
{
name = ogonek;
pos = (505,0);
},
{
name = top;
pos = (278,560);
},
{
name = topright;
pos = (522,560);
}
);
layerId = "A0F3C0B3-6058-4691-93DD-C4034CAB0732";
shapes = (
{
closed = 1;
nodes = (
(505,560,l),
(432,560,l),
(432,0,l),
(505,0,l)
);
},
{
closed = 1;
nodes = (
(432,143,o),
(355,48,o),
(255,48,cs),
(159,48,o),
(122,112,o),
(122,228,cs),
(122,560,l),
(49,560,l),
(49,215,ls),
(49,44,o),
(132,-16,o),
(240,-16,cs),
(396,-16,o),
(448,101,o),
(448,171,c),
(432,276,l)
);
}
);
width = 556;
}
);
metricRight = "=|n";
unicode = 117;
userData = {
KernOnName = u;
};
}
{
color = 6;
glyphname = w;
kernLeft = KO_w;
kernRight = KO_w;
layers = (
{
anchors = (
{
name = bottom;
pos = (406,0);
},
{
name = top;
pos = (406,560);
}
);
layerId = "7B07347B-11DE-4909-BA20-F43005BA30D7";
shapes = (
{
closed = 1;
nodes = (
(148,0,l),
(271,0,l),
(171,560,l),
(18,560,l)
);
},
{
closed = 1;
nodes = (
(328,560,l),
(208,0,l),
(341,0,l),
(461,560,l)
);
},
{
closed = 1;
nodes = (
(470,0,l),
(603,0,l),
(483,560,l),
(350,560,l)
);
},
{
closed = 1;
nodes = (
(640,560,l),
(540,0,l),
(663,0,l),
(793,560,l)
);
}
);
width = 811;
},
{
anchors = (
{
name = bottom;
pos = (371,0);
},
{
name = top;
pos = (371,560);
}
);
layerId = "A0F3C0B3-6058-4691-93DD-C4034CAB0732";
shapes = (
{
closed = 1;
nodes = (
(173,0,l),
(236,0,l),
(102,560,l),
(23,560,l)
);
},
{
closed = 1;
nodes = (
(329,560,l),
(193,0,l),
(260,0,l),
(396,560,l)
);
},
{
closed = 1;
nodes = (
(481,0,l),
(548,0,l),
(412,560,l),
(345,560,l)
);
},
{
closed = 1;
nodes = (
(639,560,l),
(505,0,l),
(568,0,l),
(718,560,l)
);
}
);
width = 741;
}
);
metricLeft = "=v";
metricRight = "=v";
unicode = 119;
userData = {
KernOnName = w;
};
}
{
color = 6;
glyphname = braceleft;
kernRight = KO_braceleft;
layers = (
{
layerId = "A0F3C0B3-6058-4691-93DD-C4034CAB0732";
shapes = (
{
closed = 1;
nodes = (
(333,-172,l),
(333,-119,l),
(324,-119,ls),
(213,-119,o),
(186,-59,o),
(186,83,cs),
(186,208,o),
(149,264,o),
(97,272,c),
(149,280,o),
(186,336,o),
(186,461,cs),
(186,603,o),
(213,663,o),
(324,663,cs),
(333,663,l),
(333,716,l),
(324,716,ls),
(159,716,o),
(119,616,o),
(119,488,cs),
(119,383,o),
(99,315,o),
(20,305,c),
(20,239,l),
(99,229,o),
(119,161,o),
(119,56,cs),
(119,-72,o),
(159,-172,o),
(324,-172,cs)
);
}
);
width = 358;
},
{
layerId = "7B07347B-11DE-4909-BA20-F43005BA30D7";
shapes = (
{
closed = 1;
nodes = (
(328,-172,l),
(328,-92,l),
(301,-92,ls),
(224,-92,o),
(217,-36,o),
(217,83,cs),
(217,208,o),
(180,264,o),
(113,272,c),
(180,280,o),
(217,336,o),
(217,461,cs),
(217,580,o),
(224,636,o),
(301,636,cs),
(328,636,l),
(328,716,l),
(301,716,ls),
(136,716,o),
(96,616,o),
(96,488,cs),
(96,401,o),
(76,329,o),
(15,319,c),
(15,225,l),
(76,215,o),
(96,143,o),
(96,56,cs),
(96,-72,o),
(136,-172,o),
(301,-172,cs)
);
}
);
width = 348;
}
);
metricRight = "=bracketleft";
unicode = 123;
}
{
color = 6;
glyphname = bar;
layers = (
{
layerId = "A0F3C0B3-6058-4691-93DD-C4034CAB0732";
shapes = (
{
closed = 1;
nodes = (
(57,-50,l),
(130,-50,l),
(130,750,l),
(57,750,l)
);
}
);
width = 187;
},
{
layerId = "7B07347B-11DE-4909-BA20-F43005BA30D7";
shapes = (
{
closed = 1;
nodes = (
(52,-50,l),
(197,-50,l),
(197,750,l),
(52,750,l)
);
}
);
width = 249;
}
);
metricRight = "=H";
unicode = 124;
}
{
color = 6;
glyphname = exclamdown;
kernRight = KO_exclam;
layers = (
{
layerId = "A0F3C0B3-6058-4691-93DD-C4034CAB0732";
shapes = (
{
closed = 1;
nodes = (
(137,-140,l),
(137,370,l),
(59,370,l),
(59,-140,l)
);
},
{
closed = 1;
nodes = (
(142,467,l),
(142,560,l),
(53,560,l),
(53,467,l)
);
}
);
width = 195;
},
{
layerId = "7B07347B-11DE-4909-BA20-F43005BA30D7";
shapes = (
{
closed = 1;
nodes = (
(196,-140,l),
(196,340,l),
(53,340,l),
(53,-140,l)
);
},
{
closed = 1;
nodes = (
(201,407,l),
(201,560,l),
(48,560,l),
(48,407,l)
);
}
);
width = 249;
}
);
metricRight = "=exclam";
unicode = 161;
}
{
color = 6;
glyphname = cent;
layers = (
{
layerId = "A0F3C0B3-6058-4691-93DD-C4034CAB0732";
shapes = (
{
closed = 1;
nodes = (
(474,-16,o),
(569,90,o),
(579,235,c),
(505,235,l),
(495,141,o),
(446,52,o),
(316,52,cs),
(183,52,o),
(106,146,o),
(106,279,cs),
(106,413,o),
(183,508,o),
(316,508,cs),
(435,508,o),
(491,423,o),
(501,340,c),
(577,340,l),
(567,463,o),
(468,576,o),
(316,576,cs),
(143,576,o),
(30,453,o),
(30,279,cs),
(30,106,o),
(143,-16,o),
(316,-16,cs)
);
},
{
closed = 1;
nodes = (
(340,-50,l),
(340,610,l),
(277,610,l),
(277,-50,l)
);
}
);
width = 610;
},
{
layerId = "7B07347B-11DE-4909-BA20-F43005BA30D7";
shapes = (
{
closed = 1;
nodes = (
(469,-16,o),
(574,90,o),
(574,235,c),
(425,235,l),
(425,171,o),
(391,114,o),
(311,114,cs),
(208,114,o),
(171,186,o),
(171,279,cs),
(171,373,o),
(208,446,o),
(311,446,cs),
(390,446,o),
(421,393,o),
(421,340,c),
(572,340,l),
(572,463,o),
(463,576,o),
(311,576,cs),
(138,576,o),
(25,453,o),
(25,279,cs),
(25,106,o),
(138,-16,o),
(311,-16,cs)
);
},
{
closed = 1;
nodes = (
(350,-50,l),
(350,610,l),
(257,610,l),
(257,-50,l)
);
}
);
width = 600;
}
);
unicode = 162;
}
{
color = 6;
glyphname = sterling;
layers = (
{
layerId = "A0F3C0B3-6058-4691-93DD-C4034CAB0732";
shapes = (
{
closed = 1;
nodes = (
(202,90,o),
(237,146,o),
(237,223,cs),
(237,337,o),
(155,419,o),
(155,511,cs),
(155,595,o),
(217,644,o),
(298,644,cs),
(403,644,o),
(445,574,o),
(451,478,c),
(528,478,l),
(528,619,o),
(433,716,o),
(303,716,cs),
(153,716,o),
(77,619,o),
(77,511,cs),
(77,384,o),
(160,337,o),
(160,222,cs),
(160,164,o),
(118,100,o),
(72,47,c),
(133,23,l)
);
},
{
closed = 1;
nodes = (
(520,0,l),
(520,68,l),
(145,68,l),
(71,47,l),
(71,0,l)
);
},
{
closed = 1;
nodes = (
(436,302,l),
(436,368,l),
(61,368,l),
(61,302,l)
);
}
);
width = 585;
},
{
layerId = "7B07347B-11DE-4909-BA20-F43005BA30D7";
shapes = (
{
closed = 1;
nodes = (
(220,94,o),
(271,150,o),
(271,250,cs),
(271,362,o),
(217,425,o),
(217,501,cs),
(217,548,o),
(241,584,o),
(302,584,cs),
(369,584,o),
(399,544,o),
(405,478,c),
(557,478,l),
(557,619,o),
(451,716,o),
(302,716,cs),
(154,716,o),
(66,633,o),
(66,501,cs),
(66,392,o),
(132,332,o),
(132,249,cs),
(132,188,o),
(97,126,o),
(54,87,c),
(112,39,l)
);
},
{
closed = 1;
nodes = (
(547,0,l),
(547,126,l),
(168,126,l),
(54,87,l),
(54,0,l)
);
},
{
closed = 1;
nodes = (
(434,293,l),
(434,393,l),
(52,393,l),
(52,293,l)
);
}
);
width = 609;
}
);
metricRight = "=H";
unicode = 163;
}
{
color = 6;
glyphname = currency;
layers = (
{
layerId = "A0F3C0B3-6058-4691-93DD-C4034CAB0732";
shapes = (
{
closed = 1;
nodes = (
(292,172,o),
(353,234,o),
(353,312,cs),
(353,391,o),
(291,453,o),
(212,453,cs),
(134,453,o),
(72,392,o),
(72,313,cs),
(72,234,o),
(134,172,o),
(213,172,cs)
);
},
{
closed = 1;
nodes = (
(150,203,l),
(103,250,l),
(20,167,l),
(67,120,l)
);
},
{
closed = 1;
nodes = (
(150,421,l),
(67,504,l),
(20,457,l),
(103,374,l)
);
},
{
closed = 1;
nodes = (
(166,236,o),
(136,272,o),
(136,312,cs),
(136,353,o),
(167,388,o),
(214,388,cs),
(260,388,o),
(288,354,o),
(288,314,cs),
(288,273,o),
(259,236,o),
(212,236,cs)
);
},
{
closed = 1;
nodes = (
(404,167,l),
(321,250,l),
(274,203,l),
(357,120,l)
);
},
{
closed = 1;
nodes = (
(404,457,l),
(357,504,l),
(274,421,l),
(321,374,l)
);
}
);
width = 424;
},
{
layerId = "7B07347B-11DE-4909-BA20-F43005BA30D7";
shapes = (
{
closed = 1;
nodes = (
(308,172,o),
(369,234,o),
(369,312,cs),
(369,391,o),
(307,453,o),
(228,453,cs),
(150,453,o),
(88,392,o),
(88,313,cs),
(88,234,o),
(150,172,o),
(229,172,cs)
);
},
{
closed = 1;
nodes = (
(187,182,l),
(98,271,l),
(15,188,l),
(104,99,l)
);
},
{
closed = 1;
nodes = (
(187,442,l),
(104,525,l),
(15,436,l),
(98,353,l)
);
},
{
closed = 1;
nodes = (
(207,272,o),
(188,291,o),
(188,311,cs),
(188,334,o),
(208,353,o),
(229,353,cs),
(250,353,o),
(269,334,o),
(269,313,cs),
(269,292,o),
(250,272,o),
(227,272,cs)
);
},
{
closed = 1;
nodes = (
(441,188,l),
(358,271,l),
(269,182,l),
(352,99,l)
);
},
{
closed = 1;
nodes = (
(441,436,l),
(352,525,l),
(269,442,l),
(358,353,l)
);
}
);
width = 456;
}
);
unicode = 164;
}
{
color = 6;
glyphname = yen;
layers = (
{
layerId = "A0F3C0B3-6058-4691-93DD-C4034CAB0732";
shapes = (
{
closed = 1;
nodes = (
(322,379,l),
(562,700,l),
(474,700,l),
(286,454,l),
(312,454,l),
(123,700,l),
(35,700,l),
(275,379,l)
);
},
{
closed = 1;
nodes = (
(261,0,l),
(336,0,l),
(336,466,l),
(261,466,l)
);
},
{
closed = 1;
nodes = (
(111,375,l),
(486,375,l),
(486,441,l),
(111,441,l)
);
},
{
closed = 1;
nodes = (
(111,229,l),
(486,229,l),
(486,295,l),
(111,295,l)
);
}
);
width = 597;
},
{
layerId = "7B07347B-11DE-4909-BA20-F43005BA30D7";
shapes = (
{
closed = 1;
nodes = (
(377,342,l),
(617,700,l),
(449,700,l),
(305,475,l),
(343,475,l),
(198,700,l),
(30,700,l),
(270,342,l)
);
},
{
closed = 1;
nodes = (
(251,0,l),
(396,0,l),
(396,499,l),
(251,499,l)
);
},
{
closed = 1;
nodes = (
(132,373,l),
(514,373,l),
(514,473,l),
(132,473,l)
);
},
{
closed = 1;
nodes = (
(132,213,l),
(514,213,l),
(514,313,l),
(132,313,l)
);
}
);
width = 647;
},
{
associatedMasterId = "A0F3C0B3-6058-4691-93DD-C4034CAB0732";
layerId = "782FE5EF-FA26-482C-994E-A86307821B1C";
name = "2 Sep 25 at 13:37";
shapes = (
{
closed = 1;
nodes = (
(322,222,l),
(562,700,l),
(474,700,l),
(286,297,l),
(312,297,l),
(123,700,l),
(35,700,l),
(275,222,l)
);
},
{
closed = 1;
nodes = (
(261,0,l),
(336,0,l),
(336,309,l),
(261,309,l)
);
},
{
closed = 1;
nodes = (
(75,258,l),
(522,258,l),
(522,324,l),
(75,324,l)
);
},
{
closed = 1;
nodes = (
(75,124,l),
(522,124,l),
(522,190,l),
(75,190,l)
);
}
);
width = 597;
}
);
metricRight = "=Y+10";
unicode = 165;
}
{
color = 6;
glyphname = section;
layers = (
{
layerId = "A0F3C0B3-6058-4691-93DD-C4034CAB0732";
shapes = (
{
closed = 1;
nodes = (
(400,156,l),
(457,184,o),
(488,233,o),
(488,298,cs),
(488,519,o),
(109,392,o),
(109,546,cs),
(109,609,o),
(159,654,o),
(256,654,cs),
(343,654,o),
(411,607,o),
(416,524,c),
(479,524,l),
(479,638,o),
(381,716,o),
(260,716,cs),
(123,716,o),
(37,636,o),
(37,546,cs),
(37,322,o),
(416,441,o),
(416,298,cs),
(416,247,o),
(387,214,o),
(337,199,c)
);
},
{
closed = 1;
nodes = (
(114,468,l),
(65,436,o),
(37,388,o),
(37,337,cs),
(37,113,o),
(416,232,o),
(416,89,cs),
(416,17,o),
(358,-19,o),
(268,-19,cs),
(176,-19,o),
(105,29,o),
(99,112,c),
(30,112,l),
(34,2,o),
(131,-81,o),
(263,-81,cs),
(404,-81,o),
(488,-17,o),
(488,89,cs),
(488,310,o),
(109,183,o),
(109,337,cs),
(109,380,o),
(133,415,o),
(179,433,c)
);
}
);
width = 518;
},
{
layerId = "7B07347B-11DE-4909-BA20-F43005BA30D7";
shapes = (
{
closed = 1;
nodes = (
(384,172,l),
(450,194,o),
(503,238,o),
(503,308,cs),
(503,529,o),
(174,432,o),
(174,536,cs),
(174,569,o),
(204,594,o),
(261,594,cs),
(308,594,o),
(346,577,o),
(351,524,c),
(494,524,l),
(494,638,o),
(386,716,o),
(265,716,cs),
(128,716,o),
(32,626,o),
(32,536,cs),
(32,312,o),
(361,401,o),
(361,308,cs),
(361,259,o),
(311,250,o),
(270,250,c)
);
},
{
closed = 1;
nodes = (
(155,461,l),
(78,442,o),
(32,387,o),
(32,327,cs),
(32,103,o),
(361,192,o),
(361,99,cs),
(361,57,o),
(323,41,o),
(273,41,cs),
(221,41,o),
(175,59,o),
(169,112,c),
(25,112,l),
(29,2,o),
(136,-81,o),
(268,-81,cs),
(409,-81,o),
(503,-7,o),
(503,99,cs),
(503,320,o),
(174,223,o),
(174,327,cs),
(174,359,o),
(202,383,o),
(256,385,c)
);
}
);
width = 528;
}
);
metricRight = "=s";
unicode = 167;
}
{
color = 6;
glyphname = ordfeminine;
layers = (
{
layerId = "A0F3C0B3-6058-4691-93DD-C4034CAB0732";
shapes = (
{
closed = 1;
nodes = (
(259,370,l),
(318,370,l),
(318,562,l),
(259,562,l)
);
},
{
closed = 1;
nodes = (
(87,716,o),
(35,651,o),
(35,582,c),
(98,582,l),
(98,624,o),
(121,661,o),
(181,661,cs),
(239,661,o),
(259,623,o),
(259,562,c),
(318,562,l),
(318,656,o),
(272,716,o),
(181,716,c)
);
},
{
closed = 1;
nodes = (
(154,583,o),
(43,569,o),
(43,465,cs),
(43,398,o),
(94,360,o),
(159,360,cs),
(233,360,o),
(270,404,o),
(281,468,c),
(259,503,l),
(259,448,o),
(224,412,o),
(173,412,cs),
(129,412,o),
(105,431,o),
(105,468,cs),
(105,512,o),
(160,538,o),
(276,527,c),
(263,577,l)
);
}
);
width = 353;
},
{
layerId = "7B07347B-11DE-4909-BA20-F43005BA30D7";
shapes = (
{
closed = 1;
nodes = (
(239,370,l),
(332,370,l),
(332,562,l),
(239,562,l)
);
},
{
closed = 1;
nodes = (
(86,716,o),
(30,651,o),
(30,582,c),
(126,582,l),
(126,605,o),
(135,631,o),
(185,631,cs),
(238,631,o),
(239,598,o),
(239,562,c),
(332,562,l),
(332,656,o),
(281,716,o),
(185,716,c)
);
},
{
closed = 1;
nodes = (
(163,578,o),
(42,572,o),
(42,465,cs),
(42,398,o),
(89,360,o),
(155,360,cs),
(217,360,o),
(265,410,o),
(262,471,c),
(239,503,l),
(239,448,o),
(199,445,o),
(173,445,cs),
(157,445,o),
(139,450,o),
(139,468,cs),
(139,497,o),
(174,506,o),
(261,504,c),
(249,582,l)
);
}
);
width = 362;
}
);
unicode = 170;
}
{
color = 6;
glyphname = logicalnot;
kernLeft = KO_plus;
kernRight = KO_logicalnot;
layers = (
{
layerId = "A0F3C0B3-6058-4691-93DD-C4034CAB0732";
shapes = (
{
closed = 1;
nodes = (
(45,335,l),
(535,335,l),
(535,401,l),
(45,401,l)
);
},
{
closed = 1;
nodes = (
(535,168,l),
(535,383,l),
(469,383,l),
(469,168,l)
);
}
);
width = 581;
},
{
layerId = "7B07347B-11DE-4909-BA20-F43005BA30D7";
shapes = (
{
closed = 1;
nodes = (
(41,309,l),
(531,309,l),
(531,431,l),
(41,431,l)
);
},
{
closed = 1;
nodes = (
(531,168,l),
(531,403,l),
(409,403,l),
(409,168,l)
);
}
);
width = 571;
},
{
associatedMasterId = "A0F3C0B3-6058-4691-93DD-C4034CAB0732";
layerId = "0CBF8B60-2A04-48ED-8707-7DDB7C01E85A";
name = "1 Sep 25 at 14:40";
shapes = (
{
closed = 1;
nodes = (
(46,339,l),
(536,339,l),
(536,401,l),
(45,401,l)
);
},
{
closed = 1;
nodes = (
(536,168,l),
(536,383,l),
(474,383,l),
(474,167,l)
);
}
);
width = 581;
}
);
unicode = 172;
}
{
color = 6;
glyphname = paragraph;
layers = (
{
layerId = "A0F3C0B3-6058-4691-93DD-C4034CAB0732";
shapes = (
{
closed = 1;
nodes = (
(268,419,l),
(268,650,l),
(268,700,l),
(124,700,o),
(39,656,o),
(39,535,cs),
(39,414,o),
(124,369,o),
(268,369,c)
);
},
{
closed = 1;
nodes = (
(343,-200,l),
(343,700,l),
(268,700,l),
(268,-200,l)
);
},
{
closed = 1;
nodes = (
(473,-200,l),
(473,700,l),
(398,700,l),
(398,-200,l)
);
},
{
closed = 1;
nodes = (
(523,634,l),
(523,700,l),
(292,700,l),
(292,634,l)
);
}
);
width = 580;
},
{
layerId = "7B07347B-11DE-4909-BA20-F43005BA30D7";
shapes = (
{
closed = 1;
nodes = (
(292,383,l),
(292,644,l),
(292,700,l),
(130,700,o),
(34,650,o),
(34,514,cs),
(34,378,o),
(130,327,o),
(292,327,c)
);
},
{
closed = 1;
nodes = (
(437,-200,l),
(437,700,l),
(292,700,l),
(292,-200,l)
);
},
{
closed = 1;
nodes = (
(640,-200,l),
(640,700,l),
(495,700,l),
(495,-200,l)
);
},
{
closed = 1;
nodes = (
(690,574,l),
(690,700,l),
(362,700,l),
(362,574,l)
);
}
);
width = 742;
}
);
metricRight = "=|P";
unicode = 182;
}
{
color = 6;
glyphname = AE;
kernLeft = KO_AE;
kernRight = KO_E;
layers = (
{
layerId = "A0F3C0B3-6058-4691-93DD-C4034CAB0732";
shapes = (
{
closed = 1;
nodes = (
(25,0,l),
(109,0,l),
(442,700,l),
(366,700,l)
);
},
{
closed = 1;
nodes = (
(164,177,l),
(511,177,l),
(511,243,l),
(164,243,l)
);
},
{
closed = 1;
nodes = (
(442,0,l),
(517,0,l),
(517,700,l),
(442,700,l)
);
},
{
closed = 1;
nodes = (
(392,632,l),
(849,632,l),
(849,700,l),
(392,700,l)
);
},
{
closed = 1;
nodes = (
(489,0,l),
(853,0,l),
(853,68,l),
(489,68,l)
);
},
{
closed = 1;
nodes = (
(466,318,l),
(809,318,l),
(809,386,l),
(466,386,l)
);
}
);
width = 900;
},
{
layerId = "7B07347B-11DE-4909-BA20-F43005BA30D7";
shapes = (
{
closed = 1;
nodes = (
(20,0,l),
(175,0,l),
(486,700,l),
(341,700,l)
);
},
{
closed = 1;
nodes = (
(172,147,l),
(549,147,l),
(549,273,l),
(172,273,l)
);
},
{
closed = 1;
nodes = (
(454,0,l),
(599,0,l),
(599,700,l),
(454,700,l)
);
},
{
closed = 1;
nodes = (
(382,574,l),
(891,574,l),
(891,700,l),
(382,700,l)
);
},
{
closed = 1;
nodes = (
(599,0,l),
(895,0,l),
(895,126,l),
(599,126,l)
);
},
{
closed = 1;
nodes = (
(599,289,l),
(851,289,l),
(851,415,l),
(599,415,l)
);
}
);
width = 937;
}
);
metricRight = "=E";
unicode = 198;
}
{
color = 6;
glyphname = Thorn;
kernLeft = KO_Thorn;
kernRight = KO_Thorn;
layers = (
{
layerId = "A0F3C0B3-6058-4691-93DD-C4034CAB0732";
shapes = (
{
closed = 1;
nodes = (
(47,0,l),
(122,0,l),
(122,700,l),
(47,700,l)
);
},
{
closed = 1;
nodes = (
(102,130,l),
(269,130,l),
(269,196,l),
(102,196,l)
);
},
{
closed = 1;
nodes = (
(269,130,l),
(461,130,o),
(574,190,o),
(574,351,cs),
(574,512,o),
(461,570,o),
(269,570,c),
(269,504,l),
(415,504,o),
(496,471,o),
(496,351,cs),
(496,231,o),
(415,196,o),
(269,196,c)
);
},
{
closed = 1;
nodes = (
(102,504,l),
(269,504,l),
(269,570,l),
(102,570,l)
);
}
);
width = 610;
},
{
layerId = "7B07347B-11DE-4909-BA20-F43005BA30D7";
shapes = (
{
closed = 1;
nodes = (
(42,0,l),
(187,0,l),
(187,700,l),
(42,700,l)
);
},
{
closed = 1;
nodes = (
(97,115,l),
(284,115,l),
(284,241,l),
(97,241,l)
);
},
{
closed = 1;
nodes = (
(284,115,l),
(466,115,o),
(589,179,o),
(589,350,cs),
(589,521,o),
(466,585,o),
(284,585,c),
(284,459,l),
(380,459,o),
(438,440,o),
(438,350,cs),
(438,260,o),
(380,241,o),
(284,241,c)
);
},
{
closed = 1;
nodes = (
(97,459,l),
(284,459,l),
(284,585,l),
(97,585,l)
);
}
);
width = 600;
}
);
unicode = 222;
}
{
color = 6;
glyphname = germandbls;
kernLeft = KO_i;
layers = (
{
layerId = "A0F3C0B3-6058-4691-93DD-C4034CAB0732";
shapes = (
{
closed = 1;
nodes = (
(130,0,l),
(130,498,ls),
(130,555,o),
(153,682,o),
(294,682,cs),
(400,682,o),
(460,635,o),
(460,535,cs),
(460,414,o),
(367,406,o),
(261,406,cs),
(229,406,l),
(229,340,l),
(300,340,ls),
(406,340,o),
(499,317,o),
(499,207,cs),
(499,87,o),
(396,66,o),
(300,66,cs),
(229,66,l),
(229,0,l),
(300,0,ls),
(452,0,o),
(575,46,o),
(575,207,cs),
(575,310,o),
(508,375,o),
(435,380,c),
(498,400,o),
(536,457,o),
(536,535,cs),
(536,676,o),
(435,750,o),
(294,750,cs),
(112,750,o),
(57,633,o),
(57,498,cs),
(57,0,l)
);
}
);
width = 605;
},
{
layerId = "7B07347B-11DE-4909-BA20-F43005BA30D7";
shapes = (
{
closed = 1;
nodes = (
(195,0,l),
(195,498,ls),
(195,555,o),
(218,628,o),
(319,628,cs),
(395,628,o),
(445,585,o),
(445,515,cs),
(445,445,o),
(382,434,o),
(316,434,cs),
(284,434,l),
(284,312,l),
(355,312,ls),
(421,312,o),
(484,291,o),
(484,221,cs),
(484,151,o),
(421,122,o),
(355,122,cs),
(284,122,l),
(284,0,l),
(355,0,ls),
(507,0,o),
(630,60,o),
(630,221,cs),
(630,290,o),
(589,353,o),
(530,380,c),
(576,409,o),
(591,467,o),
(591,515,cs),
(591,676,o),
(470,750,o),
(319,750,cs),
(127,750,o),
(52,633,o),
(52,498,cs),
(52,0,l)
);
}
);
width = 665;
}
);
metricRight = "=B";
unicode = 223;
}
{
color = 6;
glyphname = oslash;
kernLeft = KO_o;
kernRight = KO_o;
layers = (
{
layerId = "A0F3C0B3-6058-4691-93DD-C4034CAB0732";
shapes = (
{
closed = 1;
nodes = (
(489,-16,o),
(602,106,o),
(602,279,cs),
(602,453,o),
(489,576,o),
(316,576,cs),
(143,576,o),
(30,453,o),
(30,279,cs),
(30,106,o),
(143,-16,o),
(316,-16,cs)
);
},
{
closed = 1;
nodes = (
(194,52,o),
(106,136,o),
(106,279,cs),
(106,423,o),
(194,508,o),
(316,508,cs),
(438,508,o),
(526,423,o),
(526,279,cs),
(526,136,o),
(438,52,o),
(316,52,cs)
);
},
{
closed = 1;
nodes = (
(546,534,l),
(485,577,l),
(95,27,l),
(156,-16,l)
);
}
);
width = 632;
},
{
layerId = "7B07347B-11DE-4909-BA20-F43005BA30D7";
shapes = (
{
closed = 1;
nodes = (
(484,-16,o),
(597,106,o),
(597,279,cs),
(597,453,o),
(484,576,o),
(311,576,cs),
(138,576,o),
(25,453,o),
(25,279,cs),
(25,106,o),
(138,-16,o),
(311,-16,cs)
);
},
{
closed = 1;
nodes = (
(214,112,o),
(171,186,o),
(171,279,cs),
(171,373,o),
(214,448,o),
(311,448,cs),
(408,448,o),
(451,373,o),
(451,279,cs),
(451,186,o),
(408,112,o),
(311,112,cs)
);
},
{
closed = 1;
nodes = (
(547,516,l),
(462,576,l),
(85,43,l),
(170,-17,l)
);
}
);
width = 622;
}
);
metricRight = "=o";
unicode = 248;
}
{
color = 6;
glyphname = Hbar;
kernLeft = KO_Hbar;
kernRight = KO_Hbar;
layers = (
{
layerId = "A0F3C0B3-6058-4691-93DD-C4034CAB0732";
shapes = (
{
closed = 1;
nodes = (
(142,0,l),
(217,0,l),
(217,700,l),
(142,700,l)
);
},
{
closed = 1;
nodes = (
(616,0,l),
(691,0,l),
(691,700,l),
(616,700,l)
);
},
{
closed = 1;
nodes = (
(177,319,l),
(669,319,l),
(669,385,l),
(177,385,l)
);
},
{
closed = 1;
nodes = (
(52,524,l),
(781,524,l),
(781,590,l),
(52,590,l)
);
}
);
width = 833;
},
{
layerId = "7B07347B-11DE-4909-BA20-F43005BA30D7";
shapes = (
{
closed = 1;
nodes = (
(137,0,l),
(282,0,l),
(282,700,l),
(137,700,l)
);
},
{
closed = 1;
nodes = (
(561,0,l),
(706,0,l),
(706,700,l),
(561,700,l)
);
},
{
closed = 1;
nodes = (
(192,289,l),
(684,289,l),
(684,415,l),
(192,415,l)
);
},
{
closed = 1;
nodes = (
(47,494,l),
(796,494,l),
(796,620,l),
(47,620,l)
);
}
);
width = 843;
}
);
metricRight = "=H-5";
unicode = 294;
}
{
color = 6;
glyphname = idotless;
kernLeft = KO_p;
kernRight = KO_q;
layers = (
{
anchors = (
{
name = bottom;
pos = (90,0);
},
{
name = ogonek;
pos = (126,0);
},
{
name = top;
pos = (90,560);
}
);
layerId = "A0F3C0B3-6058-4691-93DD-C4034CAB0732";
shapes = (
{
closed = 1;
nodes = (
(53,0,l),
(126,0,l),
(126,560,l),
(53,560,l)
);
}
);
width = 179;
},
{
anchors = (
{
name = bottom;
pos = (120,0);
},
{
name = ogonek;
pos = (191,0);
},
{
name = top;
pos = (120,560);
}
);
layerId = "7B07347B-11DE-4909-BA20-F43005BA30D7";
shapes = (
{
closed = 1;
nodes = (
(48,0,l),
(191,0,l),
(191,560,l),
(48,560,l)
);
}
);
width = 239;
}
);
metricRight = "=i";
unicode = 305;
}
{
color = 6;
glyphname = lslash;
kernLeft = KO_lslash;
kernRight = KO_lslash;
layers = (
{
layerId = "A0F3C0B3-6058-4691-93DD-C4034CAB0732";
shapes = (
{
closed = 1;
nodes = (
(138,0,l),
(211,0,l),
(211,750,l),
(138,750,l)
);
},
{
closed = 1;
nodes = (
(48,309,l),
(301,389,l),
(301,457,l),
(48,377,l)
);
}
);
width = 349;
},
{
layerId = "7B07347B-11DE-4909-BA20-F43005BA30D7";
shapes = (
{
closed = 1;
nodes = (
(133,0,l),
(276,0,l),
(276,750,l),
(133,750,l)
);
},
{
closed = 1;
nodes = (
(43,275,l),
(366,395,l),
(366,515,l),
(43,395,l)
);
}
);
width = 409;
}
);
metricRight = "=l-5";
unicode = 322;
}
{
color = 6;
glyphname = gravecomb;
layers = (
{
anchors = (
{
name = _top;
pos = (121,560);
},
{
name = top;
pos = (122,750);
}
);
layerId = "A0F3C0B3-6058-4691-93DD-C4034CAB0732";
shapes = (
{
closed = 1;
nodes = (
(149,630,l),
(99,760,l),
(-1,760,l),
(92,630,l)
);
}
);
width = 212;
},
{
anchors = (
{
name = _top;
pos = (185,560);
},
{
name = top;
pos = (130,750);
}
);
layerId = "7B07347B-11DE-4909-BA20-F43005BA30D7";
shapes = (
{
closed = 1;
nodes = (
(238,630,l),
(178,770,l),
(18,770,l),
(121,630,l)
);
}
);
width = 230;
},
{
anchors = (
{
name = _top;
pos = (170,560);
},
{
name = top;
pos = (115,750);
}
);
associatedMasterId = "7B07347B-11DE-4909-BA20-F43005BA30D7";
layerId = "5AFBAA44-B046-46A0-8409-2F7B1EF4BACE";
name = "3 Sep 25 at 15:00";
shapes = (
{
closed = 1;
nodes = (
(113,610,l),
(210,610,l),
(160,750,l),
(20,750,l)
);
}
);
width = 230;
}
);
unicode = 768;
}
{
color = 6;
glyphname = circumflexcomb;
layers = (
{
anchors = (
{
name = _top;
pos = (137,560);
},
{
name = top;
pos = (137,750);
}
);
layerId = "A0F3C0B3-6058-4691-93DD-C4034CAB0732";
shapes = (
{
closed = 1;
nodes = (
(97,760,l),
(-5,630,l),
(75,630,l),
(162,744,l),
(112,744,l),
(199,630,l),
(279,630,l),
(177,760,l)
);
}
);
width = 274;
},
{
anchors = (
{
name = _top;
pos = (192,560);
},
{
name = top;
pos = (192,750);
}
);
layerId = "7B07347B-11DE-4909-BA20-F43005BA30D7";
shapes = (
{
closed = 1;
nodes = (
(118,770,l),
(19,630,l),
(147,630,l),
(217,728,l),
(167,728,l),
(236,630,l),
(364,630,l),
(265,770,l)
);
}
);
width = 383;
}
);
unicode = 770;
}
{
color = 6;
glyphname = brevecomb;
layers = (
{
anchors = (
{
name = _top;
pos = (143,560);
},
{
name = top;
pos = (143,750);
}
);
layerId = "A0F3C0B3-6058-4691-93DD-C4034CAB0732";
shapes = (
{
closed = 1;
nodes = (
(210,754,l),
(205,714,o),
(182,697,o),
(144,697,cs),
(105,697,o),
(83,714,o),
(78,754,c),
(5,754,l),
(13,678,o),
(69,636,o),
(144,636,cs),
(218,636,o),
(274,678,o),
(282,754,c)
);
}
);
width = 286;
},
{
anchors = (
{
name = _top;
pos = (200,560);
},
{
name = top;
pos = (200,750);
}
);
layerId = "7B07347B-11DE-4909-BA20-F43005BA30D7";
shapes = (
{
closed = 1;
nodes = (
(254,770,l),
(251,738,o),
(230,721,o),
(200,721,cs),
(170,721,o),
(150,738,o),
(146,770,c),
(30,770,l),
(39,675,o),
(110,620,o),
(200,620,cs),
(290,620,o),
(361,675,o),
(370,770,c)
);
}
);
width = 400;
}
);
unicode = 774;
}
{
color = 6;
glyphname = ringcomb;
layers = (
{
anchors = (
{
name = _top;
pos = (107,560);
},
{
name = top;
pos = (107,766);
}
);
layerId = "A0F3C0B3-6058-4691-93DD-C4034CAB0732";
shapes = (
{
closed = 1;
nodes = (
(155,627,o),
(195,666,o),
(195,714,cs),
(195,761,o),
(155,800,o),
(107,800,cs),
(59,800,o),
(19,761,o),
(19,714,cs),
(19,666,o),
(59,627,o),
(107,627,cs)
);
},
{
closed = 1;
nodes = (
(85,673,o),
(69,692,o),
(69,714,cs),
(69,735,o),
(85,754,o),
(107,754,cs),
(129,754,o),
(145,735,o),
(145,714,cs),
(145,692,o),
(129,673,o),
(107,673,cs)
);
}
);
width = 214;
},
{
anchors = (
{
name = _top;
pos = (114,560);
},
{
name = top;
pos = (114,766);
}
);
layerId = "7B07347B-11DE-4909-BA20-F43005BA30D7";
shapes = (
{
closed = 1;
nodes = (
(169,604,o),
(215,650,o),
(215,706,cs),
(215,762,o),
(169,808,o),
(113,808,cs),
(56,808,o),
(11,762,o),
(11,706,cs),
(11,650,o),
(56,604,o),
(113,604,cs)
);
},
{
closed = 1;
nodes = (
(100,681,o),
(89,692,o),
(89,706,cs),
(89,720,o),
(100,731,o),
(114,731,cs),
(128,731,o),
(139,720,o),
(139,706,cs),
(139,692,o),
(128,681,o),
(114,681,cs)
);
}
);
width = 228;
},
{
anchors = (
{
name = _top;
pos = (117,560);
},
{
name = top;
pos = (117,766);
}
);
associatedMasterId = "7B07347B-11DE-4909-BA20-F43005BA30D7";
layerId = "D08B8C23-7DEA-45BC-8A1F-B454F1105251";
name = "1 Sep 25 at 14:50";
shapes = (
{
closed = 1;
nodes = (
(165,592,o),
(204,631,o),
(204,679,cs),
(204,727,o),
(165,766,o),
(117,766,cs),
(69,766,o),
(30,727,o),
(30,679,cs),
(30,631,o),
(69,592,o),
(117,592,cs)
);
},
{
closed = 1;
nodes = (
(97,643,o),
(81,659,o),
(81,679,cs),
(81,699,o),
(97,715,o),
(117,715,cs),
(137,715,o),
(153,699,o),
(153,679,cs),
(153,659,o),
(137,643,o),
(117,643,cs)
);
}
);
width = 234;
}
);
unicode = 778;
}
{
color = 6;
glyphname = hungarumlautcomb;
layers = (
{
anchors = (
{
name = _top;
pos = (129,560);
},
{
name = top;
pos = (159,710);
}
);
layerId = "A0F3C0B3-6058-4691-93DD-C4034CAB0732";
shapes = (
{
closed = 1;
nodes = (
(55,760,l),
(25,630,l),
(82,630,l),
(155,760,l)
);
},
{
closed = 1;
nodes = (
(193,760,l),
(163,630,l),
(220,630,l),
(293,760,l)
);
}
);
width = 318;
},
{
anchors = (
{
name = _top;
pos = (166,560);
},
{
name = top;
pos = (196,770);
}
);
layerId = "7B07347B-11DE-4909-BA20-F43005BA30D7";
shapes = (
{
closed = 1;
nodes = (
(63,770,l),
(13,630,l),
(130,630,l),
(205,770,l)
);
},
{
closed = 1;
nodes = (
(237,770,l),
(187,630,l),
(304,630,l),
(379,770,l)
);
}
);
width = 392;
}
);
unicode = 779;
}
{
color = 6;
glyphname = caroncomb;
layers = (
{
anchors = (
{
name = _top;
pos = (137,560);
},
{
name = top;
pos = (137,757);
}
);
layerId = "A0F3C0B3-6058-4691-93DD-C4034CAB0732";
shapes = (
{
closed = 1;
nodes = (
(177,637,l),
(279,767,l),
(199,767,l),
(112,653,l),
(162,653,l),
(75,767,l),
(-5,767,l),
(97,637,l)
);
}
);
width = 274;
},
{
anchors = (
{
name = _top;
pos = (192,560);
},
{
name = top;
pos = (192,750);
}
);
layerId = "7B07347B-11DE-4909-BA20-F43005BA30D7";
shapes = (
{
closed = 1;
nodes = (
(265,630,l),
(364,770,l),
(236,770,l),
(167,672,l),
(217,672,l),
(147,770,l),
(19,770,l),
(118,630,l)
);
}
);
width = 383;
}
);
unicode = 780;
}
{
color = 10;
glyphname = commaturnedabovecomb;
layers = (
{
anchors = (
{
name = _top;
pos = (83,560);
},
{
name = top;
pos = (83,821);
}
);
layerId = "A0F3C0B3-6058-4691-93DD-C4034CAB0732";
shapes = (
{
angle = 180;
pos = (165,582);
ref = commaaccentcomb;
}
);
width = 165;
},
{
anchors = (
{
name = _top;
pos = (107,538);
},
{
name = top;
pos = (107,864);
}
);
layerId = "7B07347B-11DE-4909-BA20-F43005BA30D7";
shapes = (
{
angle = 180;
pos = (212,550);
ref = commaaccentcomb;
}
);
width = 213;
},
{
anchors = (
{
name = _top;
pos = (107,538);
},
{
name = top;
pos = (107,864);
}
);
associatedMasterId = "7B07347B-11DE-4909-BA20-F43005BA30D7";
layerId = "EAD473E1-764C-400B-B9D3-B7713187846A";
name = "1 Sep 25 at 15:53";
shapes = (
{
closed = 1;
nodes = (
(183,750,l),
(105,750,l),
(105,780,o),
(115,798,o),
(148,798,c),
(148,864,l),
(76,864,o),
(30,826,o),
(30,750,cs),
(30,597,l),
(183,597,l)
);
}
);
width = 213;
}
);
unicode = 786;
}
{
color = 6;
glyphname = endash;
kernLeft = KO_endash;
kernRight = KO_endash;
layers = (
{
layerId = "A0F3C0B3-6058-4691-93DD-C4034CAB0732";
shapes = (
{
closed = 1;
nodes = (
(46,289,l),
(536,289,l),
(536,351,l),
(46,351,l)
);
}
);
width = 581;
},
{
layerId = "7B07347B-11DE-4909-BA20-F43005BA30D7";
shapes = (
{
closed = 1;
nodes = (
(41,259,l),
(531,259,l),
(531,381,l),
(41,381,l)
);
}
);
width = 571;
},
{
associatedMasterId = "A0F3C0B3-6058-4691-93DD-C4034CAB0732";
layerId = "C57B81C7-E8F2-430D-897D-FA365401A291";
name = "1 Sep 25 at 14:34";
shapes = (
{
closed = 1;
nodes = (
(46,289,l),
(536,289,l),
(536,351,l),
(45,351,l)
);
}
);
width = 581;
}
);
metricRight = "=hyphen";
unicode = 8211;
}
{
color = 6;
glyphname = emdash;
kernLeft = KO_endash;
kernRight = KO_endash;
layers = (
{
layerId = "A0F3C0B3-6058-4691-93DD-C4034CAB0732";
shapes = (
{
closed = 1;
nodes = (
(45,289,l),
(683,289,l),
(683,351,l),
(45,351,l)
);
}
);
width = 728;
},
{
layerId = "7B07347B-11DE-4909-BA20-F43005BA30D7";
shapes = (
{
closed = 1;
nodes = (
(41,259,l),
(679,259,l),
(679,381,l),
(41,381,l)
);
}
);
width = 719;
},
{
associatedMasterId = "A0F3C0B3-6058-4691-93DD-C4034CAB0732";
layerId = "4706A9B4-B4C4-497D-95F1-4C9790E89C39";
name = "1 Sep 25 at 14:34";
shapes = (
{
closed = 1;
nodes = (
(45,289,l),
(683,289,l),
(684,351,l),
(45,351,l)
);
}
);
width = 729;
}
);
metricRight = "=hyphen";
unicode = 8212;
}
{
color = 6;
glyphname = guilsinglleft;
kernLeft = KO_guillemetleft;
kernRight = KO_guillemetleft;
layers = (
{
layerId = "A0F3C0B3-6058-4691-93DD-C4034CAB0732";
shapes = (
{
closed = 1;
nodes = (
(35,277,l),
(178,49,l),
(260,49,l),
(117,277,l),
(260,505,l),
(178,505,l)
);
}
);
width = 300;
},
{
layerId = "7B07347B-11DE-4909-BA20-F43005BA30D7";
shapes = (
{
closed = 1;
nodes = (
(30,277,l),
(173,49,l),
(335,49,l),
(192,277,l),
(335,505,l),
(173,505,l)
);
}
);
width = 370;
}
);
metricLeft = "=guillemetleft";
metricRight = "=guillemetleft";
unicode = 8249;
}
{
color = 6;
glyphname = zeroinferior;
layers = (
{
layerId = "7B07347B-11DE-4909-BA20-F43005BA30D7";
shapes = (
{
closed = 1;
nodes = (
(277,-8,o),
(323,75,o),
(323,175,cs),
(323,275,o),
(277,358,o),
(176,358,cs),
(75,358,o),
(28,276,o),
(28,175,cs),
(28,74,o),
(75,-8,o),
(176,-8,cs)
);
},
{
closed = 1;
nodes = (
(144,81,o),
(136,117,o),
(136,175,cs),
(136,233,o),
(144,269,o),
(176,269,cs),
(208,269,o),
(216,232,o),
(216,175,cs),
(216,118,o),
(208,81,o),
(176,81,cs)
);
}
);
userData = {
RMXScaler = {
height = 50;
weight = -270;
width = 50;
};
};
width = 351;
},
{
layerId = "A0F3C0B3-6058-4691-93DD-C4034CAB0732";
shapes = (
{
closed = 1;
nodes = (
(282,-8,o),
(328,75,o),
(328,175,cs),
(328,275,o),
(282,358,o),
(181,358,cs),
(80,358,o),
(33,276,o),
(33,175,cs),
(33,74,o),
(80,-8,o),
(181,-8,cs)
);
},
{
closed = 1;
nodes = (
(123,50,o),
(98,109,o),
(98,175,cs),
(98,241,o),
(123,300,o),
(181,300,cs),
(239,300,o),
(264,240,o),
(264,175,cs),
(264,110,o),
(239,50,o),
(181,50,cs)
);
}
);
userData = {
RMXScaler = {
height = 50;
weight = 10;
width = 50;
};
};
width = 361;
}
);
metricRight = "=O";
unicode = 8320;
userData = {
KernOnSpecialSpacing = {
L = NoKerning;
R = NoKerning;
};
RMXScaler = {
source = zero;
};
};
}
{
color = 6;
glyphname = twoinferior;
layers = (
{
layerId = "7B07347B-11DE-4909-BA20-F43005BA30D7";
shapes = (
{
closed = 1;
nodes = (
(123,0,l),
(109,130,o),
(285,112,o),
(285,243,cs),
(285,306,o),
(236,358,o),
(150,358,cs),
(74,358,o),
(12,310,o),
(12,232,c),
(113,232,l),
(115,256,o),
(123,276,o),
(151,276,cs),
(172,276,o),
(184,265,o),
(184,243,cs),
(184,171,o),
(0,165,o),
(12,0,c)
);
},
{
closed = 1;
nodes = (
(12,0,l),
(286,0,l),
(286,80,l),
(53,80,l)
);
}
);
userData = {
RMXScaler = {
height = 50;
weight = -270;
width = 50;
};
};
width = 299;
},
{
layerId = "A0F3C0B3-6058-4691-93DD-C4034CAB0732";
shapes = (
{
closed = 1;
nodes = (
(93,0,l),
(93,131,o),
(285,126,o),
(285,249,cs),
(285,306,o),
(249,358,o),
(162,358,cs),
(80,358,o),
(23,310,o),
(23,239,c),
(88,239,l),
(91,277,o),
(112,303,o),
(158,303,cs),
(196,303,o),
(220,286,o),
(220,249,cs),
(220,170,o),
(20,155,o),
(18,0,c)
);
},
{
closed = 1;
nodes = (
(18,0,l),
(286,0,l),
(286,55,l),
(59,55,l)
);
}
);
userData = {
RMXScaler = {
height = 50;
weight = 10;
width = 50;
};
};
width = 304;
}
);
unicode = 8322;
userData = {
KernOnSpecialSpacing = {
L = NoKerning;
R = NoKerning;
};
RMXScaler = {
source = two;
};
};
}
{
color = 6;
glyphname = threeinferior;
layers = (
{
layerId = "7B07347B-11DE-4909-BA20-F43005BA30D7";
shapes = (
{
closed = 1;
nodes = (
(108,139,l),
(172,139,o),
(187,123,o),
(187,103,cs),
(187,87,o),
(175,75,o),
(153,75,cs),
(128,75,o),
(115,86,o),
(112,111,c),
(15,111,l),
(15,41,o),
(72,-8,o),
(158,-8,cs),
(245,-8,o),
(288,39,o),
(288,96,cs),
(288,148,o),
(261,186,o),
(175,190,c),
(175,168,l),
(266,173,o),
(286,209,o),
(286,255,cs),
(286,311,o),
(234,358,o),
(154,358,cs),
(79,358,o),
(15,309,o),
(15,239,c),
(112,239,l),
(118,267,o),
(137,275,o),
(156,275,cs),
(177,275,o),
(190,264,o),
(190,248,cs),
(190,230,o),
(177,212,o),
(108,212,c)
);
}
);
userData = {
RMXScaler = {
height = 50;
weight = -270;
width = 50;
};
};
width = 316;
},
{
layerId = "A0F3C0B3-6058-4691-93DD-C4034CAB0732";
shapes = (
{
closed = 1;
nodes = (
(126,149,l),
(197,149,o),
(228,137,o),
(228,100,cs),
(228,72,o),
(205,50,o),
(161,50,cs),
(114,50,o),
(89,76,o),
(86,111,c),
(20,111,l),
(20,41,o),
(84,-8,o),
(159,-8,cs),
(243,-8,o),
(293,39,o),
(293,95,cs),
(293,139,o),
(264,179,o),
(194,183,c),
(194,168,l),
(266,173,o),
(291,214,o),
(291,255,cs),
(291,311,o),
(239,358,o),
(159,358,cs),
(84,358,o),
(20,309,o),
(20,239,c),
(86,239,l),
(88,277,o),
(118,300,o),
(162,300,cs),
(204,300,o),
(225,279,o),
(225,255,cs),
(225,219,o),
(198,206,o),
(126,206,c)
);
}
);
userData = {
RMXScaler = {
height = 50;
weight = 10;
width = 50;
};
};
width = 326;
}
);
metricRight = "=O";
unicode = 8323;
userData = {
KernOnSpecialSpacing = {
L = NoKerning;
R = NoKerning;
};
RMXScaler = {
source = three;
};
};
}
{
color = 6;
glyphname = fiveinferior;
layers = (
{
layerId = "7B07347B-11DE-4909-BA20-F43005BA30D7";
shapes = (
{
closed = 1;
nodes = (
(100,235,o),
(59,172,o),
(51,143,c),
(109,143,l),
(124,150,o),
(140,154,o),
(158,154,cs),
(188,154,o),
(199,136,o),
(199,116,cs),
(199,97,o),
(187,79,o),
(161,79,cs),
(135,79,o),
(122,93,o),
(119,111,c),
(18,111,l),
(18,41,o),
(81,-8,o),
(161,-8,cs),
(251,-8,o),
(297,45,o),
(297,117,cs),
(297,189,o),
(255,235,o),
(183,235,cs)
);
},
{
closed = 1;
nodes = (
(107,143,l),
(146,350,l),
(52,350,l),
(15,143,l)
);
},
{
closed = 1;
nodes = (
(78,270,l),
(269,270,l),
(269,350,l),
(78,350,l)
);
}
);
userData = {
RMXScaler = {
height = 50;
weight = -270;
width = 50;
};
};
width = 303;
},
{
layerId = "A0F3C0B3-6058-4691-93DD-C4034CAB0732";
shapes = (
{
closed = 1;
nodes = (
(92,235,o),
(56,172,o),
(48,143,c),
(85,143,l),
(97,162,o),
(123,178,o),
(159,178,cs),
(204,178,o),
(226,152,o),
(226,115,cs),
(226,80,o),
(204,48,o),
(160,48,cs),
(115,48,o),
(88,73,o),
(85,111,c),
(20,111,l),
(20,41,o),
(83,-8,o),
(157,-8,cs),
(242,-8,o),
(291,45,o),
(291,113,cs),
(291,184,o),
(247,235,o),
(169,235,cs)
);
},
{
closed = 1;
nodes = (
(83,143,l),
(122,350,l),
(59,350,l),
(22,143,l)
);
},
{
closed = 1;
nodes = (
(74,295,l),
(261,295,l),
(261,350,l),
(74,350,l)
);
}
);
userData = {
RMXScaler = {
height = 50;
weight = 10;
width = 50;
};
};
width = 306;
}
);
unicode = 8325;
userData = {
KernOnSpecialSpacing = {
L = NoKerning;
R = NoKerning;
};
RMXScaler = {
source = five;
};
};
}
{
color = 6;
glyphname = seveninferior;
layers = (
{
layerId = "7B07347B-11DE-4909-BA20-F43005BA30D7";
shapes = (
{
closed = 1;
nodes = (
(173,0,l),
(173,157,o),
(198,227,o),
(257,283,c),
(257,350,l),
(176,350,l),
(98,280,o),
(65,152,o),
(65,0,c)
);
},
{
closed = 1;
nodes = (
(10,259,l),
(233,259,l),
(233,350,l),
(10,350,l)
);
}
);
userData = {
RMXScaler = {
height = 50;
weight = -270;
width = 50;
};
};
width = 268;
},
{
layerId = "A0F3C0B3-6058-4691-93DD-C4034CAB0732";
shapes = (
{
closed = 1;
nodes = (
(156,0,l),
(156,157,o),
(196,249,o),
(255,305,c),
(255,350,l),
(217,350,l),
(139,280,o),
(92,152,o),
(92,0,c)
);
},
{
closed = 1;
nodes = (
(15,295,l),
(238,295,l),
(238,350,l),
(15,350,l)
);
}
);
userData = {
RMXScaler = {
height = 50;
weight = 10;
width = 50;
};
};
width = 270;
}
);
unicode = 8327;
userData = {
KernOnSpecialSpacing = {
L = NoKerning;
R = NoKerning;
};
RMXScaler = {
source = seven;
};
};
}
{
color = 6;
glyphname = eightinferior;
layers = (
{
layerId = "7B07347B-11DE-4909-BA20-F43005BA30D7";
shapes = (
{
closed = 1;
nodes = (
(246,-8,o),
(295,39,o),
(295,95,cs),
(295,130,o),
(279,162,o),
(238,176,c),
(276,190,o),
(292,220,o),
(292,255,cs),
(292,311,o),
(240,358,o),
(161,358,cs),
(83,358,o),
(31,311,o),
(31,255,cs),
(31,220,o),
(47,190,o),
(84,176,c),
(44,162,o),
(28,130,o),
(28,95,cs),
(28,39,o),
(77,-8,o),
(161,-8,cs)
);
},
{
closed = 1;
nodes = (
(137,77,o),
(125,91,o),
(125,110,cs),
(125,130,o),
(137,143,o),
(161,143,cs),
(185,143,o),
(197,130,o),
(197,110,cs),
(197,91,o),
(185,77,o),
(161,77,cs)
);
},
{
closed = 1;
nodes = (
(138,214,o),
(127,227,o),
(127,245,cs),
(127,263,o),
(140,275,o),
(161,275,cs),
(183,275,o),
(195,262,o),
(195,245,cs),
(195,226,o),
(183,214,o),
(161,214,cs)
);
}
);
userData = {
RMXScaler = {
height = 50;
weight = -270;
width = 50;
};
};
width = 323;
},
{
layerId = "A0F3C0B3-6058-4691-93DD-C4034CAB0732";
shapes = (
{
closed = 1;
nodes = (
(251,-8,o),
(300,39,o),
(300,95,cs),
(300,130,o),
(284,162,o),
(243,176,c),
(281,190,o),
(297,220,o),
(297,255,cs),
(297,311,o),
(245,358,o),
(166,358,cs),
(88,358,o),
(36,311,o),
(36,255,cs),
(36,220,o),
(52,190,o),
(89,176,c),
(49,162,o),
(33,130,o),
(33,95,cs),
(33,39,o),
(82,-8,o),
(166,-8,cs)
);
},
{
closed = 1;
nodes = (
(118,50,o),
(98,74,o),
(98,101,cs),
(98,131,o),
(118,152,o),
(166,152,cs),
(215,152,o),
(234,131,o),
(234,101,cs),
(234,75,o),
(216,50,o),
(166,50,cs)
);
},
{
closed = 1;
nodes = (
(121,203,o),
(100,224,o),
(100,254,cs),
(100,280,o),
(126,300,o),
(166,300,c),
(208,300,o),
(233,279,o),
(233,254,cs),
(233,224,o),
(211,203,o),
(166,203,cs)
);
}
);
userData = {
RMXScaler = {
height = 50;
weight = 10;
width = 50;
};
};
width = 333;
}
);
metricRight = "=O";
unicode = 8328;
userData = {
KernOnSpecialSpacing = {
L = NoKerning;
R = NoKerning;
};
RMXScaler = {
source = eight;
};
};
}
{
color = 6;
glyphname = hryvnia;
layers = (
{
layerId = "A0F3C0B3-6058-4691-93DD-C4034CAB0732";
shapes = (
{
closed = 1;
nodes = (
(40,403,l),
(659,403,l),
(659,469,l),
(40,469,l)
);
},
{
closed = 1;
nodes = (
(40,239,l),
(659,239,l),
(659,305,l),
(40,305,l)
);
},
{
closed = 1;
nodes = (
(619,451,l),
(625,468,o),
(628,488,o),
(628,510,cs),
(628,622,o),
(522,716,o),
(352,716,cs),
(213,716,o),
(99,633,o),
(83,509,c),
(167,509,l),
(182,596,o),
(241,644,o),
(357,644,cs),
(485,644,o),
(550,592,o),
(550,510,cs),
(550,486,o),
(543,467,o),
(530,452,c)
);
},
{
closed = 1;
nodes = (
(86,269,l),
(76,248,o),
(70,223,o),
(70,193,cs),
(70,62,o),
(174,-12,o),
(348,-12,cs),
(500,-12,o),
(614,77,o),
(633,199,c),
(549,199,l),
(530,110,o),
(447,60,o),
(342,60,cs),
(224,60,o),
(148,112,o),
(148,193,cs),
(148,230,o),
(166,254,o),
(196,270,c)
);
}
);
width = 699;
},
{
layerId = "7B07347B-11DE-4909-BA20-F43005BA30D7";
shapes = (
{
closed = 1;
nodes = (
(35,388,l),
(653,388,l),
(653,484,l),
(35,484,l)
);
},
{
closed = 1;
nodes = (
(35,224,l),
(653,224,l),
(653,320,l),
(35,320,l)
);
},
{
closed = 1;
nodes = (
(617,453,l),
(621,470,o),
(623,489,o),
(623,510,cs),
(623,622,o),
(517,716,o),
(347,716,cs),
(213,716,o),
(102,641,o),
(80,524,c),
(238,524,l),
(256,563,o),
(292,584,o),
(352,584,cs),
(430,584,o),
(472,552,o),
(472,510,cs),
(472,484,o),
(458,466,o),
(434,453,c)
);
},
{
closed = 1;
nodes = (
(70,246,l),
(67,230,o),
(65,212,o),
(65,193,cs),
(65,62,o),
(169,-12,o),
(343,-12,cs),
(487,-12,o),
(598,71,o),
(625,184,c),
(463,184,l),
(440,145,o),
(394,120,o),
(337,120,cs),
(269,120,o),
(216,142,o),
(216,193,cs),
(216,218,o),
(231,234,o),
(255,246,c)
);
}
);
width = 688;
}
);
metricRight = "=S";
unicode = 8372;
}
{
color = 6;
glyphname = rupeeIndian;
layers = (
{
layerId = "A0F3C0B3-6058-4691-93DD-C4034CAB0732";
shapes = (
{
closed = 1;
nodes = (
(328,260,o),
(441,320,o),
(441,481,cs),
(441,642,o),
(328,680,o),
(136,680,c),
(136,634,l),
(282,634,o),
(363,601,o),
(363,481,cs),
(363,361,o),
(282,326,o),
(136,326,c),
(136,260,l)
);
},
{
closed = 1;
nodes = (
(136,260,l),
(136,326,l),
(39,326,l),
(39,260,l)
);
},
{
closed = 1;
nodes = (
(446,0,l),
(114,281,l),
(39,276,l),
(39,260,l),
(335,0,l)
);
},
{
closed = 1;
nodes = (
(511,447,l),
(511,513,l),
(39,513,l),
(39,447,l)
);
},
{
closed = 1;
nodes = (
(511,634,l),
(511,700,l),
(39,700,l),
(39,634,l)
);
}
);
width = 568;
},
{
layerId = "7B07347B-11DE-4909-BA20-F43005BA30D7";
shapes = (
{
closed = 1;
nodes = (
(373,240,o),
(496,299,o),
(496,470,cs),
(496,641,o),
(323,650,o),
(191,650,c),
(191,574,l),
(287,574,o),
(345,550,o),
(345,470,cs),
(345,390,o),
(287,366,o),
(191,366,c),
(191,240,l)
);
},
{
closed = 1;
nodes = (
(191,240,l),
(191,366,l),
(54,366,l),
(54,240,l)
);
},
{
closed = 1;
nodes = (
(501,0,l),
(206,282,l),
(54,282,l),
(54,240,l),
(296,0,l)
);
},
{
closed = 1;
nodes = (
(566,407,l),
(566,533,l),
(34,533,l),
(34,407,l)
);
},
{
closed = 1;
nodes = (
(566,574,l),
(566,700,l),
(34,700,l),
(34,574,l)
);
}
);
width = 618;
}
);
metricRight = "=H";
unicode = 8377;
}
{
color = 6;
glyphname = leftRightArrow;
layers = (
{
layerId = "A0F3C0B3-6058-4691-93DD-C4034CAB0732";
shapes = (
{
closed = 1;
nodes = (
(354,126,l),
(174,306,l),
(717,306,l),
(537,126,l),
(583,80,l),
(846,343,l),
(583,606,l),
(537,560,l),
(717,380,l),
(174,380,l),
(354,560,l),
(308,606,l),
(45,343,l),
(308,80,l)
);
}
);
width = 891;
},
{
layerId = "7B07347B-11DE-4909-BA20-F43005BA30D7";
shapes = (
{
closed = 1;
nodes = (
(388,164,l),
(283,269,l),
(598,269,l),
(493,164,l),
(578,78,l),
(841,342,l),
(578,605,l),
(493,519,l),
(598,414,l),
(283,414,l),
(388,519,l),
(303,605,l),
(40,342,l),
(303,78,l)
);
}
);
width = 881;
}
);
unicode = 8596;
}
{
color = 6;
glyphname = southEastArrow;
layers = (
{
layerId = "A0F3C0B3-6058-4691-93DD-C4034CAB0732";
shapes = (
{
closed = 1;
nodes = (
(576,0,l),
(576,372,l),
(511,372,l),
(511,73,l),
(543,86,l),
(97,532,l),
(45,480,l),
(492,33,l),
(505,65,l),
(204,65,l),
(204,0,l)
);
}
);
width = 621;
},
{
layerId = "7B07347B-11DE-4909-BA20-F43005BA30D7";
shapes = (
{
closed = 1;
nodes = (
(598,0,l),
(598,372,l),
(477,372,l),
(477,178,l),
(509,191,l),
(143,557,l),
(40,454,l),
(406,88,l),
(419,120,l),
(225,120,l),
(225,0,l)
);
}
);
width = 638;
}
);
unicode = 8600;
}
{
color = 6;
glyphname = product;
layers = (
{
layerId = "A0F3C0B3-6058-4691-93DD-C4034CAB0732";
shapes = (
{
closed = 1;
nodes = (
(155,0,l),
(230,0,l),
(230,700,l),
(155,700,l)
);
},
{
closed = 1;
nodes = (
(409,0,l),
(484,0,l),
(484,700,l),
(409,700,l)
);
},
{
closed = 1;
nodes = (
(25,634,l),
(614,634,l),
(614,700,l),
(25,700,l)
);
}
);
width = 639;
},
{
layerId = "7B07347B-11DE-4909-BA20-F43005BA30D7";
shapes = (
{
closed = 1;
nodes = (
(120,0,l),
(265,0,l),
(265,700,l),
(120,700,l)
);
},
{
closed = 1;
nodes = (
(444,0,l),
(589,0,l),
(589,700,l),
(444,700,l)
);
},
{
closed = 1;
nodes = (
(20,574,l),
(689,574,l),
(689,700,l),
(20,700,l)
);
}
);
width = 709;
}
);
unicode = 8719;
}
{
color = 6;
glyphname = summation;
layers = (
{
layerId = "A0F3C0B3-6058-4691-93DD-C4034CAB0732";
shapes = (
{
closed = 1;
nodes = (
(57,623,l),
(272,310,l),
(272,390,l),
(57,76,l),
(57,0,l),
(548,0,l),
(548,68,l),
(79,68,l),
(97,15,l),
(317,333,l),
(317,366,l),
(96,685,l),
(78,632,l),
(544,632,l),
(544,700,l),
(57,700,l)
);
}
);
width = 595;
},
{
layerId = "7B07347B-11DE-4909-BA20-F43005BA30D7";
shapes = (
{
closed = 1;
nodes = (
(52,523,l),
(277,310,l),
(277,390,l),
(52,176,l),
(52,0,l),
(543,0,l),
(543,126,l),
(134,126,l),
(152,95,l),
(372,313,l),
(372,386,l),
(151,605,l),
(133,574,l),
(539,574,l),
(539,700,l),
(52,700,l)
);
}
);
width = 585;
}
);
metricRight = "=E";
unicode = 8721;
}
{
color = 6;
glyphname = radical;
kernRight = KO_radical;
layers = (
{
layerId = "A0F3C0B3-6058-4691-93DD-C4034CAB0732";
shapes = (
{
closed = 1;
nodes = (
(193,0,l),
(258,0,l),
(103,560,l),
(23,560,l)
);
},
{
closed = 1;
nodes = (
(353,700,l),
(220,0,l),
(283,0,l),
(436,700,l)
);
},
{
closed = 1;
nodes = (
(371,632,l),
(570,632,l),
(570,700,l),
(371,700,l)
);
}
);
width = 588;
},
{
layerId = "7B07347B-11DE-4909-BA20-F43005BA30D7";
shapes = (
{
closed = 1;
nodes = (
(188,0,l),
(321,0,l),
(171,560,l),
(18,560,l)
);
},
{
closed = 1;
nodes = (
(381,700,l),
(248,0,l),
(381,0,l),
(534,700,l)
);
},
{
closed = 1;
nodes = (
(429,574,l),
(668,574,l),
(668,700,l),
(429,700,l)
);
}
);
width = 683;
}
);
unicode = 8730;
}
{
color = 6;
glyphname = infinity;
layers = (
{
layerId = "A0F3C0B3-6058-4691-93DD-C4034CAB0732";
shapes = (
{
closed = 1;
nodes = (
(341,164,o),
(409,241,o),
(442,313,c),
(406,313,l),
(439,241,o),
(507,164,o),
(612,164,cs),
(730,164,o),
(813,246,o),
(813,369,cs),
(813,493,o),
(730,576,o),
(610,576,cs),
(507,576,o),
(439,499,o),
(406,425,c),
(442,425,l),
(409,499,o),
(341,576,o),
(239,576,cs),
(118,576,o),
(35,493,o),
(35,369,cs),
(35,246,o),
(118,164,o),
(239,164,cs)
);
},
{
closed = 1;
nodes = (
(164,232,o),
(113,286,o),
(113,369,cs),
(113,453,o),
(164,508,o),
(241,508,cs),
(338,508,o),
(390,416,o),
(407,339,c),
(408,399,l),
(390,323,o),
(339,232,o),
(241,232,cs)
);
},
{
closed = 1;
nodes = (
(509,232,o),
(458,323,o),
(440,399,c),
(441,339,l),
(458,416,o),
(510,508,o),
(607,508,cs),
(684,508,o),
(735,453,o),
(735,369,cs),
(735,286,o),
(684,232,o),
(607,232,cs)
);
}
);
width = 848;
},
{
layerId = "7B07347B-11DE-4909-BA20-F43005BA30D7";
shapes = (
{
closed = 1;
nodes = (
(336,164,o),
(394,221,o),
(437,283,c),
(401,283,l),
(444,221,o),
(502,164,o),
(592,164,cs),
(725,164,o),
(808,246,o),
(808,369,cs),
(808,493,o),
(725,576,o),
(592,576,cs),
(502,576,o),
(444,519,o),
(401,455,c),
(437,455,l),
(394,519,o),
(336,576,o),
(246,576,cs),
(113,576,o),
(30,493,o),
(30,369,cs),
(30,246,o),
(113,164,o),
(246,164,cs)
);
},
{
closed = 1;
nodes = (
(199,292,o),
(176,326,o),
(176,369,cs),
(176,413,o),
(199,448,o),
(246,448,cs),
(303,448,o),
(340,396,o),
(357,339,c),
(358,399,l),
(340,343,o),
(304,292,o),
(246,292,cs)
);
},
{
closed = 1;
nodes = (
(534,292,o),
(498,343,o),
(480,399,c),
(481,339,l),
(498,396,o),
(535,448,o),
(592,448,cs),
(639,448,o),
(662,413,o),
(662,369,cs),
(662,326,o),
(639,292,o),
(592,292,cs)
);
}
);
width = 838;
}
);
unicode = 8734;
}
{
color = 6;
glyphname = integral;
layers = (
{
layerId = "A0F3C0B3-6058-4691-93DD-C4034CAB0732";
shapes = (
{
closed = 1;
nodes = (
(154,148,ls),
(154,26,o),
(139,-23,o),
(47,-23,cs),
(20,-23,l),
(20,-80,l),
(47,-80,ls),
(212,-80,o),
(230,20,o),
(230,148,cs),
(230,472,ls),
(230,594,o),
(244,643,o),
(336,643,cs),
(363,643,l),
(363,700,l),
(336,700,ls),
(171,700,o),
(154,600,o),
(154,472,cs)
);
}
);
width = 383;
},
{
layerId = "7B07347B-11DE-4909-BA20-F43005BA30D7";
shapes = (
{
closed = 1;
nodes = (
(126,158,l),
(126,59,o),
(119,10,o),
(42,10,cs),
(15,10,l),
(15,-80,l),
(42,-80,ls),
(207,-80,o),
(247,20,o),
(247,148,c),
(247,462,l),
(247,561,o),
(254,610,o),
(331,610,cs),
(358,610,l),
(358,700,l),
(331,700,ls),
(166,700,o),
(126,600,o),
(126,472,c)
);
}
);
width = 373;
}
);
unicode = 8747;
}
{
color = 3;
glyphname = notequal;
kernLeft = KO_equal;
layers = (
{
layerId = "A0F3C0B3-6058-4691-93DD-C4034CAB0732";
shapes = (
{
closed = 1;
nodes = (
(181,129,l),
(253,129,l),
(391,611,l),
(319,611,l)
);
},
{
ref = equal;
}
);
width = 581;
},
{
layerId = "7B07347B-11DE-4909-BA20-F43005BA30D7";
shapes = (
{
closed = 1;
nodes = (
(146,129,l),
(288,129,l),
(426,611,l),
(284,611,l)
);
},
{
ref = equal;
}
);
width = 571;
}
);
metricRight = "=equal";
unicode = 8800;
}
{
color = 6;
glyphname = greaterequal;
layers = (
{
layerId = "A0F3C0B3-6058-4691-93DD-C4034CAB0732";
shapes = (
{
closed = 1;
nodes = (
(46,102,l),
(605,102,l),
(605,164,l),
(46,164,l)
);
},
{
closed = 1;
nodes = (
(605,349,l),
(605,415,l),
(45,315,l),
(45,239,l)
);
},
{
closed = 1;
nodes = (
(45,523,l),
(605,373,l),
(605,442,l),
(45,602,l)
);
}
);
width = 645;
},
{
layerId = "7B07347B-11DE-4909-BA20-F43005BA30D7";
shapes = (
{
closed = 1;
nodes = (
(41,72,l),
(600,72,l),
(600,194,l),
(41,194,l)
);
},
{
closed = 1;
nodes = (
(600,334,l),
(600,447,l),
(40,347,l),
(40,214,l)
);
},
{
closed = 1;
nodes = (
(40,491,l),
(600,341,l),
(600,457,l),
(40,627,l)
);
}
);
width = 640;
},
{
associatedMasterId = "A0F3C0B3-6058-4691-93DD-C4034CAB0732";
layerId = "B5A5AC2C-2FA0-451B-B042-842712C32D49";
name = "1 Sep 25 at 14:38";
shapes = (
{
closed = 1;
nodes = (
(46,102,l),
(605,102,l),
(605,164,l),
(45,164,l)
);
},
{
closed = 1;
nodes = (
(605,349,l),
(605,422,l),
(45,322,l),
(45,239,l)
);
},
{
closed = 1;
nodes = (
(45,516,l),
(605,366,l),
(605,442,l),
(45,602,l)
);
}
);
width = 645;
}
);
unicode = 8805;
}
{
color = 6;
glyphname = Saltillo;
layers = (
{
layerId = "A0F3C0B3-6058-4691-93DD-C4034CAB0732";
shapes = (
{
closed = 1;
nodes = (
(75,398,l),
(120,398,l),
(140,716,l),
(55,716,l)
);
}
);
width = 195;
},
{
layerId = "7B07347B-11DE-4909-BA20-F43005BA30D7";
shapes = (
{
closed = 1;
nodes = (
(70,398,l),
(195,398,l),
(215,716,l),
(50,716,l)
);
}
);
width = 265;
}
);
unicode = 42891;
}
{
color = 6;
glyphname = saltillo;
layers = (
{
layerId = "A0F3C0B3-6058-4691-93DD-C4034CAB0732";
shapes = (
{
closed = 1;
nodes = (
(75,438,l),
(120,438,l),
(140,716,l),
(55,716,l)
);
}
);
width = 195;
},
{
layerId = "7B07347B-11DE-4909-BA20-F43005BA30D7";
shapes = (
{
closed = 1;
nodes = (
(70,438,l),
(195,438,l),
(215,716,l),
(50,716,l)
);
}
);
width = 265;
}
);
unicode = 42892;
}
{
color = 6;
glyphname = D.ss01;
kernLeft = KO_E.ss01;
kernRight = KO_O;
layers = (
{
anchors = (
{
name = bottom;
pos = (329,0);
},
{
name = center;
pos = (172,350);
},
{
name = top;
pos = (329,700);
}
);
layerId = "A0F3C0B3-6058-4691-93DD-C4034CAB0732";
shapes = (
{
closed = 1;
nodes = (
(57,68,l),
(132,68,l),
(132,700,l),
(57,700,l)
);
},
{
closed = 1;
nodes = (
(132,0,l),
(269,0,l),
(269,68,l),
(132,68,l)
);
},
{
closed = 1;
nodes = (
(269,0,l),
(491,0,o),
(614,148,o),
(614,351,cs),
(614,552,o),
(491,700,o),
(269,700,c),
(269,632,l),
(450,632,o),
(536,509,o),
(536,351,cs),
(536,191,o),
(450,68,o),
(269,68,c)
);
},
{
closed = 1;
nodes = (
(132,632,l),
(269,632,l),
(269,700,l),
(132,700,l)
);
}
);
width = 647;
},
{
anchors = (
{
name = bottom;
pos = (349,0);
},
{
name = center;
pos = (179,350);
},
{
name = top;
pos = (349,700);
}
);
layerId = "7B07347B-11DE-4909-BA20-F43005BA30D7";
shapes = (
{
closed = 1;
nodes = (
(52,66,l),
(197,66,l),
(197,700,l),
(52,700,l)
);
},
{
closed = 1;
nodes = (
(197,0,l),
(314,0,l),
(314,126,l),
(197,126,l)
);
},
{
closed = 1;
nodes = (
(314,0,l),
(536,0,o),
(659,148,o),
(659,351,cs),
(659,552,o),
(536,700,o),
(314,700,c),
(314,574,l),
(450,574,o),
(508,469,o),
(508,351,cs),
(508,231,o),
(450,126,o),
(314,126,c)
);
},
{
closed = 1;
nodes = (
(107,574,l),
(314,574,l),
(314,700,l),
(107,700,l)
);
}
);
width = 687;
}
);
metricLeft = "=D";
metricRight = "=D";
}
{
color = 6;
glyphname = R.ss01;
kernLeft = KO_R.ss01;
kernRight = KO_R;
layers = (
{
anchors = (
{
name = bottom;
pos = (320,0);
},
{
name = top;
pos = (320,700);
}
);
layerId = "A0F3C0B3-6058-4691-93DD-C4034CAB0732";
shapes = (
{
closed = 1;
nodes = (
(132,270,l),
(299,270,l),
(299,336,l),
(132,336,l)
);
},
{
closed = 1;
nodes = (
(299,270,l),
(491,270,o),
(604,325,o),
(604,486,cs),
(604,647,o),
(491,700,o),
(299,700,c),
(299,634,l),
(445,634,o),
(526,606,o),
(526,486,cs),
(526,366,o),
(445,336,o),
(299,336,c)
);
},
{
closed = 1;
nodes = (
(132,634,l),
(299,634,l),
(299,700,l),
(132,700,l)
);
},
{
closed = 1;
nodes = (
(504,0,l),
(589,0,l),
(432,323,l),
(357,323,l)
);
},
{
closed = 1;
nodes = (
(57,634,l),
(57,0,l),
(132,0,l),
(132,634,l)
);
}
);
width = 647;
},
{
anchors = (
{
name = bottom;
pos = (317,0);
},
{
name = top;
pos = (317,700);
}
);
layerId = "7B07347B-11DE-4909-BA20-F43005BA30D7";
shapes = (
{
closed = 1;
nodes = (
(197,240,l),
(294,240,l),
(294,366,l),
(197,366,l)
);
},
{
closed = 1;
nodes = (
(294,240,l),
(476,240,o),
(599,299,o),
(599,470,cs),
(599,641,o),
(476,700,o),
(294,700,c),
(294,574,l),
(390,574,o),
(448,550,o),
(448,470,cs),
(448,390,o),
(390,366,o),
(294,366,c)
);
},
{
closed = 1;
nodes = (
(197,574,l),
(294,574,l),
(294,700,l),
(197,700,l)
);
},
{
closed = 1;
nodes = (
(439,0,l),
(604,0,l),
(447,323,l),
(302,323,l)
);
},
{
closed = 1;
nodes = (
(52,634,l),
(52,0,l),
(197,0,l),
(197,634,l)
);
}
);
width = 642;
}
);
metricLeft = "=R";
metricRight = "=R";
}
{
color = 6;
glyphname = caroncomb.alt;
layers = (
{
anchors = (
{
name = _topright;
pos = (15,750);
}
);
layerId = "A0F3C0B3-6058-4691-93DD-C4034CAB0732";
shapes = (
{
closed = 1;
nodes = (
(101,586,o),
(130,610,o),
(130,657,cs),
(130,750,l),
(35,750,l),
(35,657,l),
(84,657,l),
(84,638,o),
(77,627,o),
(57,627,c),
(57,586,l)
);
}
);
width = 165;
},
{
anchors = (
{
name = _topright;
pos = (25,750);
}
);
layerId = "7B07347B-11DE-4909-BA20-F43005BA30D7";
shapes = (
{
closed = 1;
nodes = (
(151,519,o),
(195,551,o),
(195,615,cs),
(195,750,l),
(56,750,l),
(56,615,l),
(127,615,l),
(127,590,o),
(118,575,o),
(91,575,c),
(91,519,l)
);
}
);
width = 169;
}
);
}
{
color = 6;
glyphname = dieresiscomb.narrow;
layers = (
{
anchors = (
{
name = _top;
pos = (152,560);
},
{
name = top;
pos = (152,750);
}
);
layerId = "A0F3C0B3-6058-4691-93DD-C4034CAB0732";
shapes = (
{
closed = 1;
nodes = (
(45,653,l),
(126,653,l),
(126,737,l),
(45,737,l)
);
},
{
closed = 1;
nodes = (
(178,653,l),
(259,653,l),
(259,737,l),
(178,737,l)
);
}
);
width = 304;
},
{
anchors = (
{
name = _top;
pos = (183,560);
},
{
name = top;
pos = (183,750);
}
);
layerId = "7B07347B-11DE-4909-BA20-F43005BA30D7";
shapes = (
{
closed = 1;
nodes = (
(35,630,l),
(165,630,l),
(165,760,l),
(35,760,l)
);
},
{
closed = 1;
nodes = (
(200,630,l),
(330,630,l),
(330,760,l),
(200,760,l)
);
}
);
width = 365;
}
);
}
{
color = 6;
glyphname = f.ss01;
kernLeft = KO_f;
kernRight = KO_f;
layers = (
{
anchors = (
{
name = bottom;
pos = (185,0);
},
{
name = top;
pos = (185,750);
}
);
layerId = "A0F3C0B3-6058-4691-93DD-C4034CAB0732";
shapes = (
{
closed = 1;
nodes = (
(89,0,l),
(162,0,l),
(162,688,l),
(336,688,l),
(336,750,l),
(89,750,l)
);
},
{
closed = 1;
nodes = (
(25,498,l),
(312,498,l),
(312,560,l),
(25,560,l)
);
}
);
width = 371;
},
{
anchors = (
{
name = bottom;
pos = (179,0);
},
{
name = top;
pos = (179,750);
}
);
layerId = "7B07347B-11DE-4909-BA20-F43005BA30D7";
shapes = (
{
closed = 1;
nodes = (
(84,0,l),
(227,0,l),
(227,628,l),
(335,628,l),
(335,750,l),
(84,750,l)
);
},
{
closed = 1;
nodes = (
(20,438,l),
(335,438,l),
(335,560,l),
(20,560,l)
);
}
);
width = 365;
}
);
metricLeft = "=f";
metricRight = "=f";
}
{
color = 6;
glyphname = five.tf;
layers = (
{
layerId = "A0F3C0B3-6058-4691-93DD-C4034CAB0732";
shapes = (
{
closed = 1;
nodes = (
(177,470,o),
(106,344,o),
(91,287,c),
(137,287,l),
(161,357,o),
(225,400,o),
(314,400,cs),
(431,400,o),
(499,335,o),
(499,230,cs),
(499,132,o),
(436,46,o),
(318,46,cs),
(189,46,o),
(129,136,o),
(123,222,c),
(50,222,l),
(50,81,o),
(171,-16,o),
(313,-16,cs),
(483,-16,o),
(577,90,o),
(577,227,cs),
(577,364,o),
(490,470,o),
(314,470,c)
);
},
{
closed = 1;
nodes = (
(131,287,l),
(209,700,l),
(135,700,l),
(60,287,l)
);
},
{
closed = 1;
nodes = (
(143,634,l),
(510,634,l),
(510,700,l),
(143,700,l)
);
}
);
width = 630;
},
{
layerId = "7B07347B-11DE-4909-BA20-F43005BA30D7";
shapes = (
{
closed = 1;
nodes = (
(194,470,o),
(118,344,o),
(103,287,c),
(189,287,l),
(215,317,o),
(267,340,o),
(326,340,cs),
(403,340,o),
(438,295,o),
(438,230,cs),
(438,172,o),
(403,116,o),
(325,116,cs),
(246,116,o),
(200,156,o),
(194,222,c),
(42,222,l),
(42,81,o),
(170,-16,o),
(320,-16,cs),
(490,-16,o),
(589,90,o),
(589,227,cs),
(589,371,o),
(503,470,o),
(326,470,c)
);
},
{
closed = 1;
nodes = (
(184,287,l),
(262,700,l),
(117,700,l),
(42,287,l)
);
},
{
closed = 1;
nodes = (
(155,574,l),
(532,574,l),
(532,700,l),
(155,700,l)
);
}
);
width = 630;
}
);
}
{
color = 6;
glyphname = macroncomb.narrow;
layers = (
{
anchors = (
{
name = _top;
pos = (194,560);
},
{
name = top;
pos = (194,750);
}
);
layerId = "A0F3C0B3-6058-4691-93DD-C4034CAB0732";
shapes = (
{
closed = 1;
nodes = (
(96,667,l),
(291,667,l),
(291,729,l),
(96,729,l)
);
}
);
width = 386;
},
{
anchors = (
{
name = _top;
pos = (167,560);
},
{
name = top;
pos = (167,750);
}
);
layerId = "7B07347B-11DE-4909-BA20-F43005BA30D7";
shapes = (
{
closed = 1;
nodes = (
(55,644,l),
(280,644,l),
(280,756,l),
(55,756,l)
);
}
);
width = 335;
},
{
anchors = (
{
name = _top;
pos = (193,560);
},
{
name = top;
pos = (193,750);
}
);
associatedMasterId = "A0F3C0B3-6058-4691-93DD-C4034CAB0732";
layerId = "E76C9311-9188-458E-8797-19D10F6DC99F";
name = "1 Sep 25 at 14:44";
shapes = (
{
closed = 1;
nodes = (
(36,648,l),
(351,648,l),
(351,710,l),
(35,710,l)
);
}
);
width = 386;
},
{
anchors = (
{
name = _top;
pos = (193,560);
},
{
name = top;
pos = (193,750);
}
);
associatedMasterId = "A0F3C0B3-6058-4691-93DD-C4034CAB0732";
layerId = "555A61AC-1E31-4F66-8C10-D879A0E38FBF";
name = "1 Sep 25 at 14:46";
shapes = (
{
closed = 1;
nodes = (
(36,648,l),
(351,648,l),
(351,710,l),
(36,710,l)
);
}
);
width = 386;
}
);
}
{
color = 6;
glyphname = nine.dnom;
layers = (
{
layerId = "7B07347B-11DE-4909-BA20-F43005BA30D7";
shapes = (
{
closed = 1;
nodes = (
(16,99,l),
(28,35,o),
(70,-8,o),
(144,-8,cs),
(234,-8,o),
(289,62,o),
(289,185,cs),
(289,316,o),
(223,358,o),
(146,358,cs),
(59,358,o),
(14,305,o),
(14,233,cs),
(14,165,o),
(57,115,o),
(138,115,cs),
(174,115,o),
(204,128,o),
(225,153,c),
(194,154,l),
(193,100,o),
(172,75,o),
(146,75,cs),
(126,75,o),
(119,87,o),
(117,99,c)
);
},
{
closed = 1;
nodes = (
(184,211,o),
(169,197,o),
(147,197,cs),
(123,197,o),
(108,212,o),
(108,236,cs),
(108,259,o),
(123,275,o),
(147,275,cs),
(170,275,o),
(184,259,o),
(184,235,cs)
);
}
);
userData = {
RMXScaler = {
height = 50;
weight = -270;
width = 50;
};
};
width = 317;
},
{
layerId = "A0F3C0B3-6058-4691-93DD-C4034CAB0732";
shapes = (
{
closed = 1;
nodes = (
(42,99,l),
(54,34,o),
(96,-8,o),
(165,-8,cs),
(257,-8,o),
(306,62,o),
(306,184,cs),
(306,316,o),
(242,358,o),
(167,358,cs),
(83,358,o),
(33,305,o),
(33,236,cs),
(33,168,o),
(83,115,o),
(164,115,cs),
(213,115,o),
(249,140,o),
(263,168,c),
(246,171,l),
(244,80,o),
(206,50,o),
(168,50,cs),
(125,50,o),
(113,77,o),
(109,99,c)
);
},
{
closed = 1;
nodes = (
(235,197,o),
(209,172,o),
(167,172,cs),
(124,172,o),
(98,197,o),
(98,235,cs),
(98,272,o),
(124,300,o),
(167,300,cs),
(210,300,o),
(235,272,o),
(235,234,cs)
);
}
);
userData = {
RMXScaler = {
height = 50;
weight = 10;
width = 50;
};
};
width = 339;
}
);
metricRight = "=O";
userData = {
KernOnSpecialSpacing = {
L = NoKerning;
R = NoKerning;
};
RMXScaler = {
source = nine;
};
};
}
{
color = 6;
glyphname = nine.tf;
layers = (
{
layerId = "A0F3C0B3-6058-4691-93DD-C4034CAB0732";
shapes = (
{
closed = 1;
nodes = (
(58,198,l),
(82,70,o),
(165,-16,o),
(306,-16,cs),
(489,-16,o),
(588,123,o),
(588,369,cs),
(588,633,o),
(460,716,o),
(310,716,cs),
(140,716,o),
(41,610,o),
(41,473,cs),
(41,336,o),
(140,230,o),
(304,230,cs),
(424,230,o),
(514,310,o),
(538,380,c),
(512,378,l),
(512,151,o),
(434,56,o),
(311,56,cs),
(189,56,o),
(152,151,o),
(143,198,c)
);
},
{
closed = 1;
nodes = (
(496,372,o),
(432,300,o),
(308,300,cs),
(184,300,o),
(119,372,o),
(119,470,cs),
(119,568,o),
(184,644,o),
(309,644,cs),
(432,644,o),
(496,568,o),
(496,468,cs)
);
}
);
width = 630;
},
{
layerId = "7B07347B-11DE-4909-BA20-F43005BA30D7";
shapes = (
{
closed = 1;
nodes = (
(59,198,l),
(83,70,o),
(166,-16,o),
(307,-16,cs),
(490,-16,o),
(589,123,o),
(589,369,cs),
(589,633,o),
(461,716,o),
(311,716,cs),
(141,716,o),
(42,610,o),
(42,473,cs),
(42,336,o),
(141,230,o),
(305,230,cs),
(389,230,o),
(456,266,o),
(487,320,c),
(449,327,l),
(445,172,o),
(376,116,o),
(312,116,cs),
(243,116,o),
(223,151,o),
(214,198,c)
);
},
{
closed = 1;
nodes = (
(427,400,o),
(381,360,o),
(310,360,cs),
(239,360,o),
(193,400,o),
(193,470,cs),
(193,536,o),
(239,584,o),
(311,584,cs),
(381,584,o),
(427,536,o),
(427,468,cs)
);
}
);
width = 630;
}
);
}
{
color = 6;
glyphname = s_t_a_c_k_y.liga;
kernLeft = KO_s_t_a_c_k_y.liga;
kernRight = KO_s_t_a_c_k_y.liga;
layers = (
{
layerId = "7B07347B-11DE-4909-BA20-F43005BA30D7";
shapes = (
{
attr = {
fillColor = (29,26,27,255);
};
closed = 1;
nodes = (
(681,0,ls),
(742,0,o),
(791,49,o),
(791,110,cs),
(791,218,ls),
(791,225,o),
(797,231,o),
(804,231,cs),
(841,231,l),
(841,469,l),
(804,469,ls),
(797,469,o),
(791,475,o),
(791,482,cs),
(791,589,ls),
(791,650,o),
(742,700,o),
(681,700,cs),
(515,700,l),
(515,566,l),
(611,566,ls),
(632,566,o),
(648,550,o),
(648,529,cs),
(648,432,ls),
(648,397,o),
(668,367,o),
(698,353,c),
(698,347,l),
(668,333,o),
(648,302,o),
(648,268,cs),
(648,170,ls),
(648,150,o),
(632,134,o),
(611,134,cs),
(515,134,l),
(515,0,l)
);
},
{
attr = {
fillColor = (29,26,27,255);
};
closed = 1;
nodes = (
(356,0,l),
(356,134,l),
(260,134,ls),
(239,134,o),
(223,150,o),
(223,170,cs),
(223,268,ls),
(223,302,o),
(203,333,o),
(173,347,c),
(173,353,l),
(203,367,o),
(223,397,o),
(223,432,cs),
(223,529,ls),
(223,550,o),
(239,566,o),
(260,566,cs),
(356,566,l),
(356,700,l),
(190,700,ls),
(129,700,o),
(80,650,o),
(80,589,cs),
(80,482,ls),
(80,475,o),
(74,469,o),
(67,469,cs),
(30,469,l),
(30,231,l),
(67,231,ls),
(74,231,o),
(80,225,o),
(80,218,cs),
(80,110,ls),
(80,49,o),
(129,0,o),
(190,0,cs)
);
},
{
attr = {
fillColor = (29,26,27,255);
};
closed = 1;
nodes = (
(397,332,l),
(397,455,l),
(283,455,l),
(283,332,l)
);
},
{
attr = {
fillColor = (29,26,27,255);
};
closed = 1;
nodes = (
(588,332,l),
(588,455,l),
(474,455,l),
(474,332,l)
);
}
);
width = 871;
},
{
layerId = "A0F3C0B3-6058-4691-93DD-C4034CAB0732";
shapes = (
{
attr = {
fillColor = (29,26,27,255);
};
closed = 1;
nodes = (
(590,0,ls),
(651,0,o),
(700,49,o),
(700,110,cs),
(700,248,ls),
(700,255,o),
(706,261,o),
(713,261,cs),
(750,261,l),
(750,439,l),
(713,439,ls),
(706,439,o),
(700,445,o),
(700,452,cs),
(700,589,ls),
(700,650,o),
(651,700,o),
(590,700,cs),
(464,700,l),
(464,626,l),
(590,626,ls),
(611,626,o),
(627,610,o),
(627,589,cs),
(627,452,ls),
(627,417,o),
(647,387,o),
(677,373,c),
(677,327,l),
(647,313,o),
(627,282,o),
(627,248,cs),
(627,110,ls),
(627,90,o),
(611,74,o),
(590,74,cs),
(464,74,l),
(464,0,l)
);
},
{
attr = {
fillColor = (29,26,27,255);
};
closed = 1;
nodes = (
(321,0,l),
(321,74,l),
(195,74,ls),
(174,74,o),
(158,90,o),
(158,110,cs),
(158,248,ls),
(158,282,o),
(138,313,o),
(108,327,c),
(108,373,l),
(138,387,o),
(158,417,o),
(158,452,cs),
(158,589,ls),
(158,610,o),
(174,626,o),
(195,626,cs),
(321,626,l),
(321,700,l),
(195,700,ls),
(134,700,o),
(85,650,o),
(85,589,cs),
(85,452,ls),
(85,445,o),
(79,439,o),
(72,439,cs),
(35,439,l),
(35,261,l),
(72,261,ls),
(79,261,o),
(85,255,o),
(85,248,cs),
(85,110,ls),
(85,49,o),
(134,0,o),
(195,0,cs)
);
},
{
attr = {
fillColor = (29,26,27,255);
};
closed = 1;
nodes = (
(321,369,l),
(321,441,l),
(250,441,l),
(250,369,l)
);
},
{
attr = {
fillColor = (29,26,27,255);
};
closed = 1;
nodes = (
(535,369,l),
(535,441,l),
(464,441,l),
(464,369,l)
);
}
);
width = 785;
}
);
}
{
color = 6;
glyphname = tildecomb.narrow;
layers = (
{
anchors = (
{
name = _top;
pos = (129,560);
},
{
name = top;
pos = (129,716);
}
);
layerId = "A0F3C0B3-6058-4691-93DD-C4034CAB0732";
shapes = (
{
attr = {
fillColor = (208,255);
};
closed = 1;
nodes = (
(116,682,o),
(140,643,o),
(174,643,cs),
(203,643,o),
(232,666,o),
(232,735,c),
(185,735,l),
(185,720,o),
(182,704,o),
(165,704,cs),
(143,704,o),
(129,741,o),
(88,741,cs),
(56,741,o),
(25,720,o),
(25,651,c),
(73,651,l),
(73,666,o),
(78,682,o),
(94,682,cs)
);
}
);
width = 257;
},
{
anchors = (
{
name = _top;
pos = (181,560);
},
{
name = top;
pos = (181,750);
}
);
layerId = "7B07347B-11DE-4909-BA20-F43005BA30D7";
shapes = (
{
attr = {
fillColor = (217,217,217,255);
};
closed = 1;
nodes = (
(178,670,o),
(192,619,o),
(251,619,c),
(295,619,o),
(341,663,o),
(341,760,c),
(245,760,l),
(245,737,o),
(242,720,o),
(224,720,c),
(185,720,o),
(171,769,o),
(111,769,c),
(65,769,o),
(20,726,o),
(20,630,c),
(116,630,l),
(116,652,o),
(121,670,o),
(139,670,c)
);
}
);
width = 361;
},
{
anchors = (
{
name = _top;
pos = (109,560);
},
{
name = top;
pos = (109,756);
}
);
associatedMasterId = "A0F3C0B3-6058-4691-93DD-C4034CAB0732";
layerId = "7A967722-5EDE-4B7B-AB9E-7A1572D1C8FF";
name = "1 Sep 25 at 15:00";
shapes = (
{
attr = {
fillColor = (208,255);
};
closed = 1;
nodes = (
(119,666,o),
(130,618,o),
(175,618,cs),
(203,618,o),
(232,641,o),
(232,710,c),
(185,710,l),
(185,686,o),
(182,670,o),
(165,670,cs),
(140,670,o),
(139,716,o),
(84,716,cs),
(56,716,o),
(25,695,o),
(25,626,c),
(73,626,l),
(73,650,o),
(78,666,o),
(94,666,cs)
);
}
);
width = 257;
}
);
}
{
color = 6;
glyphname = zero.tf;
layers = (
{
layerId = "A0F3C0B3-6058-4691-93DD-C4034CAB0732";
shapes = (
{
closed = 1;
nodes = (
(517,-16,o),
(610,148,o),
(610,351,cs),
(610,552,o),
(517,716,o),
(315,716,cs),
(112,716,o),
(19,552,o),
(19,351,cs),
(19,148,o),
(112,-16,o),
(315,-16,cs)
);
},
{
closed = 1;
nodes = (
(178,56,o),
(97,181,o),
(97,351,cs),
(97,519,o),
(178,644,o),
(315,644,cs),
(451,644,o),
(532,519,o),
(532,351,cs),
(532,181,o),
(451,56,o),
(315,56,cs)
);
}
);
width = 630;
},
{
layerId = "7B07347B-11DE-4909-BA20-F43005BA30D7";
shapes = (
{
closed = 1;
nodes = (
(518,-16,o),
(611,148,o),
(611,351,cs),
(611,552,o),
(518,716,o),
(316,716,cs),
(113,716,o),
(20,552,o),
(20,351,cs),
(20,148,o),
(113,-16,o),
(316,-16,cs)
);
},
{
closed = 1;
nodes = (
(209,116,o),
(171,231,o),
(171,351,cs),
(171,469,o),
(209,584,o),
(316,584,cs),
(422,584,o),
(460,469,o),
(460,351,cs),
(460,231,o),
(422,116,o),
(316,116,cs)
);
}
);
width = 630;
}
);
}
